<svg xmlns="http://www.w3.org/2000/svg" xmlns:xlink="http://www.w3.org/1999/xlink" width="500" zoomAndPan="magnify" viewBox="0 0 375 374.999991" height="500" preserveAspectRatio="xMidYMid meet" version="1.0"><defs><g/></defs><g fill="#000000" fill-opacity="1"><g transform="translate(49.020836, 86.81847)"><g><path d="M 1.199219 -0.398438 L 1.199219 0 L 12 0 L 12 -0.398438 C 8.558594 -0.398438 8.320312 -3.238281 8.320312 -11.121094 L 8.320312 -19.640625 C 8.320312 -21.519531 9.039062 -23.160156 11.121094 -23.160156 C 13.960938 -23.160156 16 -19.640625 20.878906 -19.640625 C 24.039062 -19.640625 26 -21.679688 26 -24.039062 L 25.597656 -24.039062 C 25.597656 -22.636719 24.160156 -21.757812 22.636719 -21.757812 C 19.117188 -21.757812 16.917969 -24.238281 12.960938 -24.238281 C 10.558594 -24.238281 8.800781 -22.957031 8.320312 -21.878906 L 8.320312 -39.597656 L 14.917969 -39.597656 C 24.117188 -39.597656 29.398438 -37.4375 29.398438 -34.757812 L 29.398438 -34.597656 L 29.796875 -34.597656 L 29.796875 -39.996094 L 1.199219 -39.996094 L 1.199219 -39.597656 C 4.640625 -39.597656 4.878906 -36.757812 4.878906 -28.878906 L 4.878906 -11.121094 C 4.878906 -3.238281 4.640625 -0.398438 1.199219 -0.398438 Z M 1.199219 -0.398438 "/></g></g></g><g fill="#000000" fill-opacity="1"><g transform="translate(80.017752, 86.81847)"><g><path d="M 0.800781 -27.917969 C 4.238281 -27.917969 4.480469 -25.078125 4.480469 -17.199219 L 4.480469 -8.121094 C 4.480469 0.28125 11.597656 0.800781 15.160156 0.800781 C 17.4375 0.800781 22.4375 0 25.71875 0 L 30.277344 0 L 30.277344 -0.398438 C 26.839844 -0.398438 26.597656 -3.238281 26.597656 -11.121094 L 26.597656 -28.316406 L 19.480469 -28.316406 L 19.480469 -27.917969 C 22.917969 -27.917969 23.160156 -25.078125 23.160156 -17.199219 L 23.160156 -0.921875 C 21.238281 -0.238281 19 0.238281 16.957031 0.238281 C 14.238281 0.238281 7.960938 0 7.960938 -8.960938 C 7.960938 -8.960938 7.917969 -27.117188 7.917969 -28.316406 L 0.800781 -28.316406 Z M 0.800781 -27.917969 "/></g></g></g><g fill="#000000" fill-opacity="1"><g transform="translate(111.094663, 86.81847)"><g><path d="M 16.117188 0.800781 C 22.078125 0.800781 26.4375 -2.441406 28.519531 -7.199219 L 27.957031 -7.441406 C 26 -2.28125 20.71875 -0.558594 17.558594 -0.558594 C 10.199219 -0.558594 5.917969 -6.839844 5.839844 -14.277344 C 5.757812 -19.917969 7.917969 -28.636719 16.039062 -28.636719 C 27.476562 -28.636719 27.316406 -13.238281 21.398438 -13.238281 C 18.199219 -13.238281 15.078125 -18.558594 10.878906 -18.558594 C 8.121094 -18.558594 6.679688 -17 6.679688 -15.359375 L 6.839844 -15.320312 C 6.960938 -15.640625 7.839844 -16.320312 8.800781 -16.320312 C 12.71875 -16.320312 14.679688 -12.757812 21.117188 -12.757812 C 25.71875 -12.757812 28.316406 -15.480469 28.359375 -20 C 28.398438 -24.039062 24.71875 -29.117188 16.117188 -29.117188 C 7.519531 -29.117188 2.398438 -22.398438 2.398438 -14.160156 C 2.398438 -5.917969 7.519531 0.800781 16.117188 0.800781 Z M 16.117188 0.800781 "/></g></g></g><g fill="#000000" fill-opacity="1"><g transform="translate(142.011596, 86.81847)"><g><path d="M 1.199219 -0.398438 L 1.199219 0 L 12 0 L 12 -0.398438 C 8.558594 -0.398438 8.320312 -3.238281 8.320312 -11.121094 L 8.320312 -27.398438 C 10.238281 -28.078125 12.480469 -28.558594 14.519531 -28.558594 C 17.238281 -28.558594 23.519531 -28.316406 23.519531 -19.359375 C 23.519531 -19.359375 23.558594 -12.320312 23.558594 -11.121094 C 23.558594 -3.238281 23.320312 -0.398438 19.878906 -0.398438 L 19.878906 0 L 30.679688 0 L 30.679688 -0.398438 C 27.238281 -0.398438 27 -3.238281 27 -11.121094 L 27 -20.199219 C 27 -28.597656 19.878906 -29.117188 16.320312 -29.117188 C 14.039062 -29.117188 9.039062 -28.316406 5.757812 -28.316406 L 1.199219 -28.316406 L 1.199219 -27.917969 C 4.640625 -27.917969 4.878906 -25.078125 4.878906 -17.199219 L 4.878906 -11.121094 C 4.878906 -3.238281 4.640625 -0.398438 1.199219 -0.398438 Z M 1.199219 -0.398438 "/></g></g></g><g fill="#000000" fill-opacity="1"><g transform="translate(173.488465, 86.81847)"><g><path d="M 0.800781 -28.316406 L 0.800781 -27.917969 L 4.480469 -27.917969 L 4.480469 -3.679688 C 4.480469 -1.039062 5.238281 0.800781 7.519531 0.800781 C 9.558594 0.800781 10.878906 -0.28125 11.917969 -2 L 11.519531 -2.199219 C 11.519531 -2.199219 10.4375 -0.320312 9.199219 -0.320312 C 7.679688 -0.320312 7.917969 -2.480469 7.917969 -8.71875 L 7.917969 -27.917969 L 10.960938 -27.917969 L 10.960938 -28.316406 L 7.917969 -28.316406 L 7.917969 -37.996094 L 7.519531 -37.996094 C 7.519531 -35.277344 7.480469 -28.316406 0.800781 -28.316406 Z M 0.800781 -28.316406 "/></g></g></g><g fill="#000000" fill-opacity="1"><g transform="translate(186.207199, 86.81847)"><g><path d="M 16.117188 0.800781 C 22.078125 0.800781 26.4375 -2.441406 28.519531 -7.199219 L 27.957031 -7.441406 C 26 -2.28125 20.71875 -0.558594 17.558594 -0.558594 C 10.199219 -0.558594 5.917969 -6.839844 5.839844 -14.277344 C 5.757812 -19.917969 7.917969 -28.636719 16.039062 -28.636719 C 27.476562 -28.636719 27.316406 -13.238281 21.398438 -13.238281 C 18.199219 -13.238281 15.078125 -18.558594 10.878906 -18.558594 C 8.121094 -18.558594 6.679688 -17 6.679688 -15.359375 L 6.839844 -15.320312 C 6.960938 -15.640625 7.839844 -16.320312 8.800781 -16.320312 C 12.71875 -16.320312 14.679688 -12.757812 21.117188 -12.757812 C 25.71875 -12.757812 28.316406 -15.480469 28.359375 -20 C 28.398438 -24.039062 24.71875 -29.117188 16.117188 -29.117188 C 7.519531 -29.117188 2.398438 -22.398438 2.398438 -14.160156 C 2.398438 -5.917969 7.519531 0.800781 16.117188 0.800781 Z M 16.117188 0.800781 "/></g></g></g><g fill="#000000" fill-opacity="1"><g transform="translate(217.124132, 86.81847)"><g/></g></g><g fill="#000000" fill-opacity="1"><g transform="translate(231.122739, 86.81847)"><g><path d="M 0.800781 -27.917969 C 4.238281 -27.917969 4.480469 -25.078125 4.480469 -17.199219 L 4.480469 -8.121094 C 4.480469 0.28125 11.597656 0.800781 15.160156 0.800781 C 17.4375 0.800781 22.4375 0 25.71875 0 L 30.277344 0 L 30.277344 -0.398438 C 26.839844 -0.398438 26.597656 -3.238281 26.597656 -11.121094 L 26.597656 -28.316406 L 19.480469 -28.316406 L 19.480469 -27.917969 C 22.917969 -27.917969 23.160156 -25.078125 23.160156 -17.199219 L 23.160156 -0.921875 C 21.238281 -0.238281 19 0.238281 16.957031 0.238281 C 14.238281 0.238281 7.960938 0 7.960938 -8.960938 C 7.960938 -8.960938 7.917969 -27.117188 7.917969 -28.316406 L 0.800781 -28.316406 Z M 0.800781 -27.917969 "/></g></g></g><g fill="#000000" fill-opacity="1"><g transform="translate(262.199649, 86.81847)"><g><path d="M 1.199219 -0.398438 L 1.199219 0 L 12 0 L 12 -0.398438 C 8.558594 -0.398438 8.320312 -3.238281 8.320312 -11.121094 L 8.320312 -27.398438 C 10.238281 -28.078125 12.480469 -28.558594 14.519531 -28.558594 C 17.238281 -28.558594 23.519531 -28.316406 23.519531 -19.359375 C 23.519531 -19.359375 23.558594 -12.320312 23.558594 -11.121094 C 23.558594 -3.238281 23.320312 -0.398438 19.878906 -0.398438 L 19.878906 0 L 30.679688 0 L 30.679688 -0.398438 C 27.238281 -0.398438 27 -3.238281 27 -11.121094 L 27 -20.199219 C 27 -28.597656 19.878906 -29.117188 16.320312 -29.117188 C 14.039062 -29.117188 9.039062 -28.316406 5.757812 -28.316406 L 1.199219 -28.316406 L 1.199219 -27.917969 C 4.640625 -27.917969 4.878906 -25.078125 4.878906 -17.199219 L 4.878906 -11.121094 C 4.878906 -3.238281 4.640625 -0.398438 1.199219 -0.398438 Z M 1.199219 -0.398438 "/></g></g></g><g fill="#000000" fill-opacity="1"><g transform="translate(293.676507, 86.81847)"><g><path d="M 16.117188 0.800781 C 24.71875 0.800781 29.917969 -5.917969 29.917969 -14.160156 C 29.917969 -22.398438 24.71875 -29.117188 16.117188 -29.117188 C 7.519531 -29.117188 2.398438 -22.398438 2.398438 -14.160156 C 2.398438 -5.917969 7.519531 0.800781 16.117188 0.800781 Z M 5.800781 -14.160156 C 5.800781 -22.957031 9.917969 -28.636719 16.117188 -28.636719 C 22.320312 -28.636719 26.519531 -22.957031 26.519531 -14.160156 C 26.519531 -5.359375 22.320312 0.320312 16.117188 0.320312 C 9.917969 0.320312 5.800781 -5.359375 5.800781 -14.160156 Z M 5.800781 -14.160156 "/></g></g></g><g fill="#000000" fill-opacity="1"><g transform="translate(150.867182, 119.468546)"><g><path d="M 5.09375 0 L 3.765625 0 L 3.765625 -10.25 L 0.140625 -10.25 L 0.140625 -11.421875 L 8.703125 -11.421875 L 8.703125 -10.25 L 5.09375 -10.25 Z M 5.09375 0 "/></g></g></g><g fill="#000000" fill-opacity="1"><g transform="translate(159.716589, 119.468546)"><g><path d="M 8.75 0 L 7.328125 -3.640625 L 2.75 -3.640625 L 1.34375 0 L 0 0 L 4.515625 -11.46875 L 5.640625 -11.46875 L 10.125 0 Z M 6.921875 -4.828125 L 5.59375 -8.375 C 5.414062 -8.820312 5.238281 -9.367188 5.0625 -10.015625 C 4.945312 -9.515625 4.78125 -8.96875 4.5625 -8.375 L 3.21875 -4.828125 Z M 6.921875 -4.828125 "/></g></g></g><g fill="#000000" fill-opacity="1"><g transform="translate(169.839116, 119.468546)"><g><path d="M 10.5 0 L 8.984375 0 L 2.734375 -9.59375 L 2.671875 -9.59375 C 2.753906 -8.46875 2.796875 -7.4375 2.796875 -6.5 L 2.796875 0 L 1.578125 0 L 1.578125 -11.421875 L 3.078125 -11.421875 L 9.296875 -1.875 L 9.359375 -1.875 C 9.347656 -2.019531 9.320312 -2.472656 9.28125 -3.234375 C 9.25 -3.992188 9.238281 -4.539062 9.25 -4.875 L 9.25 -11.421875 L 10.5 -11.421875 Z M 10.5 0 "/></g></g></g><g fill="#000000" fill-opacity="1"><g transform="translate(181.89867, 119.468546)"><g/></g></g><g fill="#000000" fill-opacity="1"><g transform="translate(186.053905, 119.468546)"><g><path d="M 8.8125 -8.09375 C 8.8125 -6.9375 8.414062 -6.046875 7.625 -5.421875 C 6.84375 -4.804688 5.71875 -4.5 4.25 -4.5 L 2.90625 -4.5 L 2.90625 0 L 1.578125 0 L 1.578125 -11.421875 L 4.53125 -11.421875 C 7.382812 -11.421875 8.8125 -10.3125 8.8125 -8.09375 Z M 2.90625 -5.640625 L 4.09375 -5.640625 C 5.269531 -5.640625 6.117188 -5.828125 6.640625 -6.203125 C 7.171875 -6.585938 7.4375 -7.195312 7.4375 -8.03125 C 7.4375 -8.789062 7.1875 -9.351562 6.6875 -9.71875 C 6.195312 -10.09375 5.429688 -10.28125 4.390625 -10.28125 L 2.90625 -10.28125 Z M 2.90625 -5.640625 "/></g></g></g><g fill="#000000" fill-opacity="1"><g transform="translate(195.684371, 119.468546)"><g><path d="M 5 0.15625 C 3.726562 0.15625 2.726562 -0.226562 2 -1 C 1.269531 -1.769531 0.90625 -2.84375 0.90625 -4.21875 C 0.90625 -5.59375 1.242188 -6.6875 1.921875 -7.5 C 2.597656 -8.3125 3.507812 -8.71875 4.65625 -8.71875 C 5.726562 -8.71875 6.578125 -8.363281 7.203125 -7.65625 C 7.828125 -6.957031 8.140625 -6.03125 8.140625 -4.875 L 8.140625 -4.046875 L 2.25 -4.046875 C 2.269531 -3.046875 2.519531 -2.285156 3 -1.765625 C 3.488281 -1.242188 4.171875 -0.984375 5.046875 -0.984375 C 5.960938 -0.984375 6.875 -1.175781 7.78125 -1.5625 L 7.78125 -0.40625 C 7.320312 -0.207031 6.882812 -0.0664062 6.46875 0.015625 C 6.0625 0.109375 5.570312 0.15625 5 0.15625 Z M 4.640625 -7.640625 C 3.953125 -7.640625 3.40625 -7.414062 3 -6.96875 C 2.59375 -6.519531 2.351562 -5.898438 2.28125 -5.109375 L 6.75 -5.109375 C 6.75 -5.921875 6.566406 -6.546875 6.203125 -6.984375 C 5.835938 -7.421875 5.316406 -7.640625 4.640625 -7.640625 Z M 4.640625 -7.640625 "/></g></g></g><g fill="#000000" fill-opacity="1"><g transform="translate(204.658747, 119.468546)"><g><path d="M 6.640625 0 L 6.390625 -1.21875 L 6.328125 -1.21875 C 5.898438 -0.6875 5.472656 -0.320312 5.046875 -0.125 C 4.617188 0.0625 4.085938 0.15625 3.453125 0.15625 C 2.609375 0.15625 1.941406 -0.0625 1.453125 -0.5 C 0.972656 -0.9375 0.734375 -1.5625 0.734375 -2.375 C 0.734375 -4.101562 2.117188 -5.007812 4.890625 -5.09375 L 6.34375 -5.140625 L 6.34375 -5.671875 C 6.34375 -6.335938 6.195312 -6.832031 5.90625 -7.15625 C 5.613281 -7.476562 5.148438 -7.640625 4.515625 -7.640625 C 3.804688 -7.640625 3 -7.421875 2.09375 -6.984375 L 1.703125 -7.96875 C 2.117188 -8.195312 2.578125 -8.375 3.078125 -8.5 C 3.585938 -8.632812 4.09375 -8.703125 4.59375 -8.703125 C 5.613281 -8.703125 6.367188 -8.472656 6.859375 -8.015625 C 7.359375 -7.566406 7.609375 -6.84375 7.609375 -5.84375 L 7.609375 0 Z M 3.71875 -0.921875 C 4.519531 -0.921875 5.148438 -1.140625 5.609375 -1.578125 C 6.078125 -2.023438 6.3125 -2.644531 6.3125 -3.4375 L 6.3125 -4.21875 L 5.015625 -4.15625 C 3.984375 -4.125 3.238281 -3.960938 2.78125 -3.671875 C 2.320312 -3.390625 2.09375 -2.953125 2.09375 -2.359375 C 2.09375 -1.890625 2.234375 -1.53125 2.515625 -1.28125 C 2.804688 -1.039062 3.207031 -0.921875 3.71875 -0.921875 Z M 3.71875 -0.921875 "/></g></g></g><g fill="#000000" fill-opacity="1"><g transform="translate(213.555017, 119.468546)"><g><path d="M 5.28125 -8.71875 C 5.664062 -8.71875 6.007812 -8.6875 6.3125 -8.625 L 6.125 -7.421875 C 5.769531 -7.503906 5.457031 -7.546875 5.1875 -7.546875 C 4.5 -7.546875 3.90625 -7.265625 3.40625 -6.703125 C 2.914062 -6.140625 2.671875 -5.4375 2.671875 -4.59375 L 2.671875 0 L 1.375 0 L 1.375 -8.5625 L 2.453125 -8.5625 L 2.59375 -6.984375 L 2.65625 -6.984375 C 2.976562 -7.535156 3.363281 -7.960938 3.8125 -8.265625 C 4.257812 -8.566406 4.75 -8.71875 5.28125 -8.71875 Z M 5.28125 -8.71875 "/></g></g></g><g fill="#000000" fill-opacity="1"><g transform="translate(220.084672, 119.468546)"><g><path d="M 2.671875 0 L 1.375 0 L 1.375 -12.15625 L 2.671875 -12.15625 Z M 2.671875 0 "/></g></g></g><g fill="#000000" fill-opacity="1"><g transform="translate(94.089572, 171.999949)"><g><path d="M 12.960938 -10.757812 C 13.597656 -10.757812 13.679688 -11.757812 13.039062 -11.757812 C 11.757812 -11.757812 10.28125 -11.640625 8.800781 -11.597656 C 8.878906 -15.4375 9.121094 -19.796875 9.28125 -21.480469 C 10.917969 -21.078125 12.71875 -20.558594 14.480469 -20.558594 C 16.160156 -20.558594 17.277344 -21.199219 17.757812 -22.078125 C 18.4375 -23.359375 18.078125 -24.320312 17.4375 -23.957031 C 16.839844 -22.519531 15.480469 -21.636719 13.878906 -21.636719 C 11.160156 -21.636719 8.441406 -23.039062 5.839844 -23.039062 C 2.878906 -23.039062 1.359375 -21.480469 0.921875 -20.117188 C 0.640625 -19.277344 1 -18.640625 1.640625 -19 C 2.441406 -20.878906 3.878906 -22.039062 6.039062 -22.039062 C 6.359375 -22.039062 6.71875 -22 7.121094 -21.957031 C 7.121094 -19.4375 7 -15.597656 6.800781 -11.558594 C 5.601562 -11.597656 4.519531 -11.679688 3.640625 -11.960938 C 3.078125 -11.839844 2.839844 -10.757812 3.480469 -10.4375 C 3.878906 -10.199219 5.199219 -10.199219 6.71875 -10.28125 C 6.398438 -5.121094 5.878906 0 5.121094 2.558594 C 5.359375 3.757812 7.519531 4.238281 8.199219 2.917969 C 8.839844 1.71875 8.800781 -5.398438 8.800781 -9.878906 L 8.800781 -10.4375 C 10.640625 -10.558594 12.359375 -10.757812 12.960938 -10.757812 Z M 12.960938 -10.757812 "/></g></g></g><g fill="#000000" fill-opacity="1"><g transform="translate(116.368073, 171.999949)"><g><path d="M 15.320312 -8.238281 C 14.039062 -4.601562 12.039062 1.078125 10.160156 1.078125 C 8.160156 1.078125 9.640625 -9.4375 9.878906 -11.640625 C 10.039062 -13.078125 8.71875 -13.160156 8.519531 -12.71875 C 8.28125 -12.199219 7.878906 -10.960938 7.519531 -9.398438 C 6.238281 -5.640625 4.441406 -0.640625 2.839844 -0.640625 C 0.839844 -0.640625 2.398438 -7.917969 2.640625 -10.121094 C 2.800781 -11.558594 1 -11.359375 0.800781 -10.917969 C -0.078125 -8.960938 -3.078125 0.078125 2.71875 0.359375 C 4.320312 0.441406 5.679688 -1.878906 6.757812 -4.558594 C 6.558594 -1.199219 7.160156 1.917969 10.039062 2.078125 C 13 2.238281 14.878906 -4.359375 16.039062 -7.679688 C 16.320312 -8.480469 15.640625 -8.519531 15.320312 -8.238281 Z M 15.320312 -8.238281 "/></g></g></g><g fill="#000000" fill-opacity="1"><g transform="translate(138.886545, 171.999949)"><g><path d="M 3.121094 -1.359375 C 2.199219 -1.359375 1.839844 -2.960938 1.917969 -4.917969 C 4.320312 -6.917969 8.960938 -11.71875 5.679688 -13.199219 C -0.761719 -16.078125 -2.960938 -0.441406 3.078125 -0.441406 C 6.039062 -0.441406 9.359375 -4.679688 10.597656 -7.679688 C 10.917969 -8.441406 10.199219 -8.519531 9.878906 -8.238281 C 8.199219 -4.679688 5.078125 -1.359375 3.121094 -1.359375 Z M 5.398438 -12.277344 C 6.878906 -11.398438 3.917969 -8 2 -6.078125 C 2.359375 -9.4375 3.71875 -13.199219 5.398438 -12.277344 Z M 5.398438 -12.277344 "/></g></g></g><g fill="#000000" fill-opacity="1"><g transform="translate(155.965564, 171.999949)"><g><path d="M -0.398438 -1.039062 C -0.480469 0.160156 1.320312 0.359375 1.480469 -0.839844 C 3.28125 -7.757812 5.917969 -13.558594 7.878906 -13.558594 C 9.4375 -13.558594 9.039062 -11.078125 8.558594 -8.238281 C 7.917969 -4.398438 7.238281 0.238281 11.558594 0.441406 C 14.519531 0.601562 16.4375 -4.359375 17.597656 -7.679688 C 17.878906 -8.480469 17.199219 -8.519531 16.878906 -8.238281 C 15.597656 -4.601562 13.558594 -0.558594 11.679688 -0.558594 C 10.039062 -0.558594 10.480469 -5 10.917969 -8.199219 C 11.398438 -11.679688 10.597656 -14.398438 8 -14.398438 C 5.839844 -14.398438 3.878906 -11.320312 2.28125 -7.160156 C 2.441406 -8.160156 2.640625 -9.078125 2.878906 -9.71875 C 3.480469 -11.320312 0.878906 -11.640625 0.441406 -10.679688 C -0.441406 -8.71875 -0.199219 -3.878906 -0.398438 -1.039062 Z M -0.398438 -1.039062 "/></g></g></g><g fill="#000000" fill-opacity="1"><g transform="translate(180.043874, 171.999949)"><g><path d="M -2.039062 -10.121094 C -1.199219 -10.4375 -0.398438 -10.640625 0.320312 -10.839844 C 0.0390625 -9.71875 -0.121094 -8.558594 -0.199219 -7.519531 C -0.601562 -3.078125 -0.28125 3.078125 2.878906 3.199219 C 5.839844 3.28125 8.839844 -4.359375 10 -7.679688 C 10.28125 -8.480469 9.597656 -8.519531 9.28125 -8.238281 C 8 -4.601562 4.878906 2.199219 3 2.199219 C 1.28125 2.199219 1.601562 -4 2.078125 -7.71875 C 2.238281 -8.917969 2.398438 -10.078125 2.601562 -11.199219 C 4.640625 -11.398438 6.199219 -11.199219 6.960938 -11.078125 C 7.398438 -11.320312 7.597656 -12.121094 6.839844 -12.199219 C 5.519531 -12.320312 4.160156 -12.277344 2.800781 -12.121094 L 2.878906 -12.640625 C 3.160156 -12.800781 3.398438 -12.960938 3.640625 -13.160156 C 6.28125 -15.117188 7.757812 -17.917969 5.757812 -18.640625 C 3.679688 -19.398438 1.800781 -16.160156 0.679688 -12.359375 C -0.160156 -11.917969 -1 -11.597656 -1.679688 -11.277344 L -2.640625 -11.039062 C -3.078125 -10.480469 -2.800781 -9.839844 -2.039062 -10.121094 Z M 5.601562 -17.640625 C 6.160156 -17.320312 5.160156 -15.320312 3.238281 -13.878906 C 3.199219 -13.839844 3.199219 -13.839844 3.160156 -13.839844 C 3.839844 -16.4375 4.679688 -18.117188 5.601562 -17.640625 Z M 5.601562 -17.640625 "/></g></g></g><g fill="#000000" fill-opacity="1"><g transform="translate(196.522942, 171.999949)"><g><path d="M 3.121094 -1.359375 C 2.199219 -1.359375 1.839844 -2.960938 1.917969 -4.917969 C 4.320312 -6.917969 8.960938 -11.71875 5.679688 -13.199219 C -0.761719 -16.078125 -2.960938 -0.441406 3.078125 -0.441406 C 6.039062 -0.441406 9.359375 -4.679688 10.597656 -7.679688 C 10.917969 -8.441406 10.199219 -8.519531 9.878906 -8.238281 C 8.199219 -4.679688 5.078125 -1.359375 3.121094 -1.359375 Z M 5.398438 -12.277344 C 6.878906 -11.398438 3.917969 -8 2 -6.078125 C 2.359375 -9.4375 3.71875 -13.199219 5.398438 -12.277344 Z M 5.398438 -12.277344 "/></g></g></g><g fill="#000000" fill-opacity="1"><g transform="translate(226.801351, 171.999949)"><g><path d="M 13.800781 -21.4375 C 11.71875 -22.320312 9.078125 -20.4375 7.359375 -14.039062 C 7.238281 -13.679688 7.121094 -13.160156 7.039062 -12.597656 C 6.71875 -13.078125 6.199219 -13.4375 5.558594 -13.558594 C -1.078125 -14.800781 -2.398438 -1.320312 2.878906 -1.320312 C 4.160156 -1.320312 5.28125 -2.558594 6.359375 -4.238281 C 6.558594 -1.039062 7.398438 1.679688 9.757812 1.761719 C 12.71875 1.839844 14.679688 -4.359375 15.839844 -7.679688 C 16.117188 -8.480469 15.4375 -8.519531 15.117188 -8.238281 C 13.839844 -4.601562 11.757812 0.761719 9.878906 0.761719 C 8.28125 0.761719 8.320312 -3.441406 8.679688 -7.078125 C 11.679688 -10.800781 18.199219 -19.597656 13.800781 -21.4375 Z M 5.320312 -12.71875 C 6.078125 -12.71875 6.679688 -12.039062 6.71875 -10.679688 C 6.519531 -9.238281 6.359375 -7.558594 6.320312 -5.917969 C 5.078125 -3.757812 3.878906 -2.238281 2.917969 -2.238281 C 0.640625 -2.238281 2.320312 -12.71875 5.320312 -12.71875 Z M 9.4375 -12.121094 C 11.121094 -18.917969 12.757812 -20.796875 13.640625 -20.4375 C 15.839844 -19.519531 11.640625 -12.71875 8.878906 -8.71875 C 9.078125 -10.320312 9.320312 -11.597656 9.4375 -12.121094 Z M 9.4375 -12.121094 "/></g></g></g><g fill="#000000" fill-opacity="1"><g transform="translate(249.119847, 171.999949)"><g><path d="M 5.800781 -14.359375 C 4.121094 -14.199219 3.160156 -12.917969 2.839844 -11.320312 C 1.359375 -10.960938 0.359375 -9.757812 -0.160156 -8.238281 C -1.359375 -4.878906 -0.078125 0 3.917969 0 C 5.558594 0 6.839844 -1.121094 7.800781 -2.71875 C 8.078125 -2.679688 8.398438 -2.640625 8.71875 -2.640625 C 11.679688 -2.558594 13.757812 -4.359375 14.917969 -7.679688 C 15.199219 -8.480469 14.519531 -8.519531 14.199219 -8.238281 C 12.917969 -4.601562 10.917969 -3.640625 8.839844 -3.640625 C 8.640625 -3.640625 8.480469 -3.640625 8.320312 -3.679688 C 8.839844 -4.800781 9.199219 -6.078125 9.398438 -7.398438 C 10.039062 -11.519531 8.640625 -14.640625 5.800781 -14.359375 Z M 4.359375 -10.28125 C 4.878906 -10.28125 5.359375 -9.878906 5.558594 -9.160156 C 5.960938 -8.960938 6.640625 -9.398438 6.441406 -10.039062 C 6.199219 -10.71875 5.359375 -11.160156 4.519531 -11.320312 C 4.800781 -12.359375 5.320312 -13.121094 6 -13.277344 C 7.839844 -13.71875 8.800781 -11.078125 8.199219 -7.480469 C 7.960938 -6.238281 7.679688 -5 7.28125 -3.917969 C 4.960938 -4.878906 4.121094 -7.917969 4.359375 -10.28125 Z M 6.839844 -3.039062 C 6.199219 -1.761719 5.320312 -0.960938 4.160156 -1.039062 C 2.71875 -1.160156 2 -3.078125 2 -5.160156 C 2 -6.480469 2.238281 -7.878906 2.761719 -8.917969 C 3.121094 -6.480469 4.519531 -3.960938 6.839844 -3.039062 Z M 6.839844 -3.039062 "/></g></g></g><g fill="#000000" fill-opacity="1"><g transform="translate(270.518432, 171.999949)"><g><path d="M 0 -8.238281 C -0.28125 -7.441406 0.398438 -7.519531 0.71875 -7.679688 C 1 -8.398438 1.601562 -9.238281 2.28125 -10.078125 C 2.800781 -8.558594 3.398438 -6.878906 3.640625 -4.558594 C 3.640625 -4.238281 3.679688 -3.960938 3.679688 -3.640625 C 2.480469 -3 1.28125 -2.238281 0.199219 -1.121094 C -0.679688 -0.238281 -1.320312 1.160156 -0.679688 2.199219 C -0.398438 2.679688 0.078125 3.039062 0.640625 3.121094 C 3.160156 3.519531 6.878906 -0.078125 6.597656 -4.121094 C 8.398438 -4.960938 10.039062 -5.878906 11.039062 -7.679688 C 11.4375 -8.398438 10.679688 -8.441406 10.398438 -8.238281 C 9.558594 -6.71875 8.121094 -5.839844 6.519531 -5.039062 C 6.039062 -8.121094 4.519531 -9.839844 3.480469 -11.597656 C 4.078125 -12.398438 4.558594 -13.199219 4.71875 -13.917969 C 4.917969 -14.878906 4.757812 -16.238281 3.558594 -16.4375 C 2.398438 -16.640625 1.28125 -15.679688 1.28125 -14.4375 C 1.28125 -13.160156 1.558594 -12.078125 1.960938 -10.917969 C 1.121094 -9.878906 0.238281 -8.917969 0 -8.238281 Z M 0.398438 2.28125 C -0.238281 2.078125 -0.160156 0.878906 0.71875 -0.238281 C 1.519531 -1.28125 2.519531 -2.039062 3.601562 -2.640625 C 3.28125 0.28125 1.679688 2.640625 0.398438 2.28125 Z M 2.480469 -14.199219 C 2.359375 -15.078125 2.960938 -15.71875 3.519531 -15.640625 C 4 -15.558594 4.078125 -14.960938 3.917969 -14.199219 C 3.800781 -13.597656 3.480469 -12.960938 3.039062 -12.320312 C 2.761719 -12.917969 2.558594 -13.519531 2.480469 -14.199219 Z M 2.480469 -14.199219 "/></g></g></g><g fill="#000000" fill-opacity="1"><g transform="translate(79.546874, 202.400027)"><g><path d="M 10.25 0 L 8.921875 0 L 8.921875 -5.375 L 2.90625 -5.375 L 2.90625 0 L 1.578125 0 L 1.578125 -11.421875 L 2.90625 -11.421875 L 2.90625 -6.5625 L 8.921875 -6.5625 L 8.921875 -11.421875 L 10.25 -11.421875 Z M 10.25 0 "/></g></g></g><g fill="#000000" fill-opacity="1"><g transform="translate(91.348685, 202.400027)"><g><path d="M 8.765625 -4.296875 C 8.765625 -2.898438 8.410156 -1.804688 7.703125 -1.015625 C 7.003906 -0.234375 6.035156 0.15625 4.796875 0.15625 C 4.035156 0.15625 3.359375 -0.0195312 2.765625 -0.375 C 2.171875 -0.738281 1.710938 -1.253906 1.390625 -1.921875 C 1.066406 -2.597656 0.90625 -3.390625 0.90625 -4.296875 C 0.90625 -5.691406 1.253906 -6.773438 1.953125 -7.546875 C 2.648438 -8.328125 3.617188 -8.71875 4.859375 -8.71875 C 6.054688 -8.71875 7.003906 -8.316406 7.703125 -7.515625 C 8.410156 -6.722656 8.765625 -5.648438 8.765625 -4.296875 Z M 2.25 -4.296875 C 2.25 -3.203125 2.46875 -2.367188 2.90625 -1.796875 C 3.34375 -1.222656 3.984375 -0.9375 4.828125 -0.9375 C 5.679688 -0.9375 6.328125 -1.21875 6.765625 -1.78125 C 7.203125 -2.351562 7.421875 -3.191406 7.421875 -4.296875 C 7.421875 -5.378906 7.203125 -6.203125 6.765625 -6.765625 C 6.328125 -7.335938 5.675781 -7.625 4.8125 -7.625 C 3.96875 -7.625 3.328125 -7.34375 2.890625 -6.78125 C 2.460938 -6.226562 2.25 -5.398438 2.25 -4.296875 Z M 2.25 -4.296875 "/></g></g></g><g fill="#000000" fill-opacity="1"><g transform="translate(101.010393, 202.400027)"><g><path d="M 8.375 0 L 6.796875 -5.03125 C 6.703125 -5.332031 6.519531 -6.03125 6.25 -7.125 L 6.1875 -7.125 C 5.976562 -6.207031 5.796875 -5.503906 5.640625 -5.015625 L 4.015625 0 L 2.515625 0 L 0.1875 -8.5625 L 1.546875 -8.5625 C 2.097656 -6.414062 2.515625 -4.78125 2.796875 -3.65625 C 3.085938 -2.53125 3.253906 -1.769531 3.296875 -1.375 L 3.359375 -1.375 C 3.421875 -1.675781 3.515625 -2.0625 3.640625 -2.53125 C 3.765625 -3 3.875 -3.375 3.96875 -3.65625 L 5.546875 -8.5625 L 6.953125 -8.5625 L 8.484375 -3.65625 C 8.773438 -2.757812 8.972656 -2.003906 9.078125 -1.390625 L 9.140625 -1.390625 C 9.160156 -1.578125 9.210938 -1.863281 9.296875 -2.25 C 9.390625 -2.644531 9.9375 -4.75 10.9375 -8.5625 L 12.28125 -8.5625 L 9.90625 0 Z M 8.375 0 "/></g></g></g><g fill="#000000" fill-opacity="1"><g transform="translate(113.452672, 202.400027)"><g><path d="M 5 0.15625 C 3.726562 0.15625 2.726562 -0.226562 2 -1 C 1.269531 -1.769531 0.90625 -2.84375 0.90625 -4.21875 C 0.90625 -5.59375 1.242188 -6.6875 1.921875 -7.5 C 2.597656 -8.3125 3.507812 -8.71875 4.65625 -8.71875 C 5.726562 -8.71875 6.578125 -8.363281 7.203125 -7.65625 C 7.828125 -6.957031 8.140625 -6.03125 8.140625 -4.875 L 8.140625 -4.046875 L 2.25 -4.046875 C 2.269531 -3.046875 2.519531 -2.285156 3 -1.765625 C 3.488281 -1.242188 4.171875 -0.984375 5.046875 -0.984375 C 5.960938 -0.984375 6.875 -1.175781 7.78125 -1.5625 L 7.78125 -0.40625 C 7.320312 -0.207031 6.882812 -0.0664062 6.46875 0.015625 C 6.0625 0.109375 5.570312 0.15625 5 0.15625 Z M 4.640625 -7.640625 C 3.953125 -7.640625 3.40625 -7.414062 3 -6.96875 C 2.59375 -6.519531 2.351562 -5.898438 2.28125 -5.109375 L 6.75 -5.109375 C 6.75 -5.921875 6.566406 -6.546875 6.203125 -6.984375 C 5.835938 -7.421875 5.316406 -7.640625 4.640625 -7.640625 Z M 4.640625 -7.640625 "/></g></g></g><g fill="#000000" fill-opacity="1"><g transform="translate(122.427048, 202.400027)"><g><path d="M 2.671875 0 L 1.375 0 L 1.375 -12.15625 L 2.671875 -12.15625 Z M 2.671875 0 "/></g></g></g><g fill="#000000" fill-opacity="1"><g transform="translate(126.472935, 202.400027)"><g><path d="M 2.671875 0 L 1.375 0 L 1.375 -12.15625 L 2.671875 -12.15625 Z M 2.671875 0 "/></g></g></g><g fill="#000000" fill-opacity="1"><g transform="translate(130.518821, 202.400027)"><g/></g></g><g fill="#000000" fill-opacity="1"><g transform="translate(134.674056, 202.400027)"><g><path d="M 0.640625 -4.390625 C 0.640625 -5.765625 0.84375 -7.050781 1.25 -8.25 C 1.65625 -9.457031 2.238281 -10.515625 3 -11.421875 L 4.265625 -11.421875 C 3.515625 -10.421875 2.945312 -9.316406 2.5625 -8.109375 C 2.1875 -6.910156 2 -5.675781 2 -4.40625 C 2 -3.15625 2.191406 -1.929688 2.578125 -0.734375 C 2.960938 0.460938 3.519531 1.550781 4.25 2.53125 L 3 2.53125 C 2.226562 1.644531 1.640625 0.613281 1.234375 -0.5625 C 0.835938 -1.75 0.640625 -3.023438 0.640625 -4.390625 Z M 0.640625 -4.390625 "/></g></g></g><g fill="#000000" fill-opacity="1"><g transform="translate(139.407275, 202.400027)"><g><path d="M 4.796875 0.15625 C 3.554688 0.15625 2.597656 -0.222656 1.921875 -0.984375 C 1.242188 -1.753906 0.90625 -2.835938 0.90625 -4.234375 C 0.90625 -5.660156 1.25 -6.765625 1.9375 -7.546875 C 2.625 -8.328125 3.609375 -8.71875 4.890625 -8.71875 C 5.296875 -8.71875 5.703125 -8.671875 6.109375 -8.578125 C 6.523438 -8.492188 6.851562 -8.394531 7.09375 -8.28125 L 6.6875 -7.171875 C 6.40625 -7.285156 6.09375 -7.378906 5.75 -7.453125 C 5.414062 -7.535156 5.117188 -7.578125 4.859375 -7.578125 C 3.117188 -7.578125 2.25 -6.46875 2.25 -4.25 C 2.25 -3.195312 2.457031 -2.390625 2.875 -1.828125 C 3.300781 -1.265625 3.929688 -0.984375 4.765625 -0.984375 C 5.484375 -0.984375 6.21875 -1.132812 6.96875 -1.4375 L 6.96875 -0.296875 C 6.394531 0.00390625 5.671875 0.15625 4.796875 0.15625 Z M 4.796875 0.15625 "/></g></g></g><g fill="#000000" fill-opacity="1"><g transform="translate(147.022608, 202.400027)"><g><path d="M 8.765625 -4.296875 C 8.765625 -2.898438 8.410156 -1.804688 7.703125 -1.015625 C 7.003906 -0.234375 6.035156 0.15625 4.796875 0.15625 C 4.035156 0.15625 3.359375 -0.0195312 2.765625 -0.375 C 2.171875 -0.738281 1.710938 -1.253906 1.390625 -1.921875 C 1.066406 -2.597656 0.90625 -3.390625 0.90625 -4.296875 C 0.90625 -5.691406 1.253906 -6.773438 1.953125 -7.546875 C 2.648438 -8.328125 3.617188 -8.71875 4.859375 -8.71875 C 6.054688 -8.71875 7.003906 -8.316406 7.703125 -7.515625 C 8.410156 -6.722656 8.765625 -5.648438 8.765625 -4.296875 Z M 2.25 -4.296875 C 2.25 -3.203125 2.46875 -2.367188 2.90625 -1.796875 C 3.34375 -1.222656 3.984375 -0.9375 4.828125 -0.9375 C 5.679688 -0.9375 6.328125 -1.21875 6.765625 -1.78125 C 7.203125 -2.351562 7.421875 -3.191406 7.421875 -4.296875 C 7.421875 -5.378906 7.203125 -6.203125 6.765625 -6.765625 C 6.328125 -7.335938 5.675781 -7.625 4.8125 -7.625 C 3.96875 -7.625 3.328125 -7.34375 2.890625 -6.78125 C 2.460938 -6.226562 2.25 -5.398438 2.25 -4.296875 Z M 2.25 -4.296875 "/></g></g></g><g fill="#000000" fill-opacity="1"><g transform="translate(156.684317, 202.400027)"><g><path d="M 7.234375 0 L 7.234375 -5.546875 C 7.234375 -6.242188 7.070312 -6.765625 6.75 -7.109375 C 6.4375 -7.453125 5.941406 -7.625 5.265625 -7.625 C 4.367188 -7.625 3.710938 -7.378906 3.296875 -6.890625 C 2.878906 -6.410156 2.671875 -5.613281 2.671875 -4.5 L 2.671875 0 L 1.375 0 L 1.375 -8.5625 L 2.4375 -8.5625 L 2.640625 -7.390625 L 2.703125 -7.390625 C 2.972656 -7.816406 3.347656 -8.144531 3.828125 -8.375 C 4.304688 -8.601562 4.835938 -8.71875 5.421875 -8.71875 C 6.453125 -8.71875 7.226562 -8.46875 7.75 -7.96875 C 8.269531 -7.476562 8.53125 -6.6875 8.53125 -5.59375 L 8.53125 0 Z M 7.234375 0 "/></g></g></g><g fill="#000000" fill-opacity="1"><g transform="translate(166.502237, 202.400027)"><g/></g></g><g fill="#000000" fill-opacity="1"><g transform="translate(170.657472, 202.400027)"><g><path d="M 2.671875 0 L 1.375 0 L 1.375 -8.5625 L 2.671875 -8.5625 Z M 1.265625 -10.890625 C 1.265625 -11.179688 1.335938 -11.394531 1.484375 -11.53125 C 1.628906 -11.675781 1.8125 -11.75 2.03125 -11.75 C 2.238281 -11.75 2.414062 -11.675781 2.5625 -11.53125 C 2.71875 -11.394531 2.796875 -11.179688 2.796875 -10.890625 C 2.796875 -10.597656 2.71875 -10.378906 2.5625 -10.234375 C 2.414062 -10.085938 2.238281 -10.015625 2.03125 -10.015625 C 1.8125 -10.015625 1.628906 -10.085938 1.484375 -10.234375 C 1.335938 -10.378906 1.265625 -10.597656 1.265625 -10.890625 Z M 1.265625 -10.890625 "/></g></g></g><g fill="#000000" fill-opacity="1"><g transform="translate(174.703358, 202.400027)"><g><path d="M 7.234375 0 L 7.234375 -5.546875 C 7.234375 -6.242188 7.070312 -6.765625 6.75 -7.109375 C 6.4375 -7.453125 5.941406 -7.625 5.265625 -7.625 C 4.367188 -7.625 3.710938 -7.378906 3.296875 -6.890625 C 2.878906 -6.410156 2.671875 -5.613281 2.671875 -4.5 L 2.671875 0 L 1.375 0 L 1.375 -8.5625 L 2.4375 -8.5625 L 2.640625 -7.390625 L 2.703125 -7.390625 C 2.972656 -7.816406 3.347656 -8.144531 3.828125 -8.375 C 4.304688 -8.601562 4.835938 -8.71875 5.421875 -8.71875 C 6.453125 -8.71875 7.226562 -8.46875 7.75 -7.96875 C 8.269531 -7.476562 8.53125 -6.6875 8.53125 -5.59375 L 8.53125 0 Z M 7.234375 0 "/></g></g></g><g fill="#000000" fill-opacity="1"><g transform="translate(184.521278, 202.400027)"><g><path d="M 4.140625 -0.921875 C 4.367188 -0.921875 4.585938 -0.9375 4.796875 -0.96875 C 5.015625 -1 5.1875 -1.035156 5.3125 -1.078125 L 5.3125 -0.078125 C 5.175781 -0.00390625 4.96875 0.0507812 4.6875 0.09375 C 4.414062 0.132812 4.171875 0.15625 3.953125 0.15625 C 2.296875 0.15625 1.46875 -0.71875 1.46875 -2.46875 L 1.46875 -7.5625 L 0.25 -7.5625 L 0.25 -8.1875 L 1.46875 -8.71875 L 2.015625 -10.546875 L 2.765625 -10.546875 L 2.765625 -8.5625 L 5.25 -8.5625 L 5.25 -7.5625 L 2.765625 -7.5625 L 2.765625 -2.515625 C 2.765625 -2.003906 2.882812 -1.609375 3.125 -1.328125 C 3.375 -1.054688 3.710938 -0.921875 4.140625 -0.921875 Z M 4.140625 -0.921875 "/></g></g></g><g fill="#000000" fill-opacity="1"><g transform="translate(190.168342, 202.400027)"><g><path d="M 5 0.15625 C 3.726562 0.15625 2.726562 -0.226562 2 -1 C 1.269531 -1.769531 0.90625 -2.84375 0.90625 -4.21875 C 0.90625 -5.59375 1.242188 -6.6875 1.921875 -7.5 C 2.597656 -8.3125 3.507812 -8.71875 4.65625 -8.71875 C 5.726562 -8.71875 6.578125 -8.363281 7.203125 -7.65625 C 7.828125 -6.957031 8.140625 -6.03125 8.140625 -4.875 L 8.140625 -4.046875 L 2.25 -4.046875 C 2.269531 -3.046875 2.519531 -2.285156 3 -1.765625 C 3.488281 -1.242188 4.171875 -0.984375 5.046875 -0.984375 C 5.960938 -0.984375 6.875 -1.175781 7.78125 -1.5625 L 7.78125 -0.40625 C 7.320312 -0.207031 6.882812 -0.0664062 6.46875 0.015625 C 6.0625 0.109375 5.570312 0.15625 5 0.15625 Z M 4.640625 -7.640625 C 3.953125 -7.640625 3.40625 -7.414062 3 -6.96875 C 2.59375 -6.519531 2.351562 -5.898438 2.28125 -5.109375 L 6.75 -5.109375 C 6.75 -5.921875 6.566406 -6.546875 6.203125 -6.984375 C 5.835938 -7.421875 5.316406 -7.640625 4.640625 -7.640625 Z M 4.640625 -7.640625 "/></g></g></g><g fill="#000000" fill-opacity="1"><g transform="translate(199.142718, 202.400027)"><g><path d="M 5.28125 -8.71875 C 5.664062 -8.71875 6.007812 -8.6875 6.3125 -8.625 L 6.125 -7.421875 C 5.769531 -7.503906 5.457031 -7.546875 5.1875 -7.546875 C 4.5 -7.546875 3.90625 -7.265625 3.40625 -6.703125 C 2.914062 -6.140625 2.671875 -5.4375 2.671875 -4.59375 L 2.671875 0 L 1.375 0 L 1.375 -8.5625 L 2.453125 -8.5625 L 2.59375 -6.984375 L 2.65625 -6.984375 C 2.976562 -7.535156 3.363281 -7.960938 3.8125 -8.265625 C 4.257812 -8.566406 4.75 -8.71875 5.28125 -8.71875 Z M 5.28125 -8.71875 "/></g></g></g><g fill="#000000" fill-opacity="1"><g transform="translate(205.672373, 202.400027)"><g><path d="M 2.671875 0 L 1.375 0 L 1.375 -12.15625 L 2.671875 -12.15625 Z M 2.671875 0 "/></g></g></g><g fill="#000000" fill-opacity="1"><g transform="translate(209.71826, 202.400027)"><g><path d="M 5 0.15625 C 3.726562 0.15625 2.726562 -0.226562 2 -1 C 1.269531 -1.769531 0.90625 -2.84375 0.90625 -4.21875 C 0.90625 -5.59375 1.242188 -6.6875 1.921875 -7.5 C 2.597656 -8.3125 3.507812 -8.71875 4.65625 -8.71875 C 5.726562 -8.71875 6.578125 -8.363281 7.203125 -7.65625 C 7.828125 -6.957031 8.140625 -6.03125 8.140625 -4.875 L 8.140625 -4.046875 L 2.25 -4.046875 C 2.269531 -3.046875 2.519531 -2.285156 3 -1.765625 C 3.488281 -1.242188 4.171875 -0.984375 5.046875 -0.984375 C 5.960938 -0.984375 6.875 -1.175781 7.78125 -1.5625 L 7.78125 -0.40625 C 7.320312 -0.207031 6.882812 -0.0664062 6.46875 0.015625 C 6.0625 0.109375 5.570312 0.15625 5 0.15625 Z M 4.640625 -7.640625 C 3.953125 -7.640625 3.40625 -7.414062 3 -6.96875 C 2.59375 -6.519531 2.351562 -5.898438 2.28125 -5.109375 L 6.75 -5.109375 C 6.75 -5.921875 6.566406 -6.546875 6.203125 -6.984375 C 5.835938 -7.421875 5.316406 -7.640625 4.640625 -7.640625 Z M 4.640625 -7.640625 "/></g></g></g><g fill="#000000" fill-opacity="1"><g transform="translate(218.692636, 202.400027)"><g><path d="M 4.140625 -0.921875 C 4.367188 -0.921875 4.585938 -0.9375 4.796875 -0.96875 C 5.015625 -1 5.1875 -1.035156 5.3125 -1.078125 L 5.3125 -0.078125 C 5.175781 -0.00390625 4.96875 0.0507812 4.6875 0.09375 C 4.414062 0.132812 4.171875 0.15625 3.953125 0.15625 C 2.296875 0.15625 1.46875 -0.71875 1.46875 -2.46875 L 1.46875 -7.5625 L 0.25 -7.5625 L 0.25 -8.1875 L 1.46875 -8.71875 L 2.015625 -10.546875 L 2.765625 -10.546875 L 2.765625 -8.5625 L 5.25 -8.5625 L 5.25 -7.5625 L 2.765625 -7.5625 L 2.765625 -2.515625 C 2.765625 -2.003906 2.882812 -1.609375 3.125 -1.328125 C 3.375 -1.054688 3.710938 -0.921875 4.140625 -0.921875 Z M 4.140625 -0.921875 "/></g></g></g><g fill="#000000" fill-opacity="1"><g transform="translate(224.3397, 202.400027)"><g><path d="M 5.28125 -8.71875 C 5.664062 -8.71875 6.007812 -8.6875 6.3125 -8.625 L 6.125 -7.421875 C 5.769531 -7.503906 5.457031 -7.546875 5.1875 -7.546875 C 4.5 -7.546875 3.90625 -7.265625 3.40625 -6.703125 C 2.914062 -6.140625 2.671875 -5.4375 2.671875 -4.59375 L 2.671875 0 L 1.375 0 L 1.375 -8.5625 L 2.453125 -8.5625 L 2.59375 -6.984375 L 2.65625 -6.984375 C 2.976562 -7.535156 3.363281 -7.960938 3.8125 -8.265625 C 4.257812 -8.566406 4.75 -8.71875 5.28125 -8.71875 Z M 5.28125 -8.71875 "/></g></g></g><g fill="#000000" fill-opacity="1"><g transform="translate(230.869355, 202.400027)"><g><path d="M 6.640625 0 L 6.390625 -1.21875 L 6.328125 -1.21875 C 5.898438 -0.6875 5.472656 -0.320312 5.046875 -0.125 C 4.617188 0.0625 4.085938 0.15625 3.453125 0.15625 C 2.609375 0.15625 1.941406 -0.0625 1.453125 -0.5 C 0.972656 -0.9375 0.734375 -1.5625 0.734375 -2.375 C 0.734375 -4.101562 2.117188 -5.007812 4.890625 -5.09375 L 6.34375 -5.140625 L 6.34375 -5.671875 C 6.34375 -6.335938 6.195312 -6.832031 5.90625 -7.15625 C 5.613281 -7.476562 5.148438 -7.640625 4.515625 -7.640625 C 3.804688 -7.640625 3 -7.421875 2.09375 -6.984375 L 1.703125 -7.96875 C 2.117188 -8.195312 2.578125 -8.375 3.078125 -8.5 C 3.585938 -8.632812 4.09375 -8.703125 4.59375 -8.703125 C 5.613281 -8.703125 6.367188 -8.472656 6.859375 -8.015625 C 7.359375 -7.566406 7.609375 -6.84375 7.609375 -5.84375 L 7.609375 0 Z M 3.71875 -0.921875 C 4.519531 -0.921875 5.148438 -1.140625 5.609375 -1.578125 C 6.078125 -2.023438 6.3125 -2.644531 6.3125 -3.4375 L 6.3125 -4.21875 L 5.015625 -4.15625 C 3.984375 -4.125 3.238281 -3.960938 2.78125 -3.671875 C 2.320312 -3.390625 2.09375 -2.953125 2.09375 -2.359375 C 2.09375 -1.890625 2.234375 -1.53125 2.515625 -1.28125 C 2.804688 -1.039062 3.207031 -0.921875 3.71875 -0.921875 Z M 3.71875 -0.921875 "/></g></g></g><g fill="#000000" fill-opacity="1"><g transform="translate(239.765625, 202.400027)"><g><path d="M 7.203125 -1.15625 L 7.140625 -1.15625 C 6.535156 -0.28125 5.640625 0.15625 4.453125 0.15625 C 3.328125 0.15625 2.453125 -0.222656 1.828125 -0.984375 C 1.210938 -1.753906 0.90625 -2.847656 0.90625 -4.265625 C 0.90625 -5.671875 1.21875 -6.765625 1.84375 -7.546875 C 2.46875 -8.328125 3.335938 -8.71875 4.453125 -8.71875 C 5.609375 -8.71875 6.5 -8.296875 7.125 -7.453125 L 7.21875 -7.453125 L 7.171875 -8.078125 L 7.140625 -8.671875 L 7.140625 -12.15625 L 8.4375 -12.15625 L 8.4375 0 L 7.375 0 Z M 4.609375 -0.9375 C 5.492188 -0.9375 6.132812 -1.175781 6.53125 -1.65625 C 6.9375 -2.132812 7.140625 -2.910156 7.140625 -3.984375 L 7.140625 -4.265625 C 7.140625 -5.472656 6.9375 -6.335938 6.53125 -6.859375 C 6.125 -7.378906 5.476562 -7.640625 4.59375 -7.640625 C 3.832031 -7.640625 3.25 -7.34375 2.84375 -6.75 C 2.445312 -6.15625 2.25 -5.320312 2.25 -4.25 C 2.25 -3.15625 2.445312 -2.328125 2.84375 -1.765625 C 3.25 -1.210938 3.835938 -0.9375 4.609375 -0.9375 Z M 4.609375 -0.9375 "/></g></g></g><g fill="#000000" fill-opacity="1"><g transform="translate(249.567924, 202.400027)"><g><path d="M 8.765625 -4.296875 C 8.765625 -2.898438 8.410156 -1.804688 7.703125 -1.015625 C 7.003906 -0.234375 6.035156 0.15625 4.796875 0.15625 C 4.035156 0.15625 3.359375 -0.0195312 2.765625 -0.375 C 2.171875 -0.738281 1.710938 -1.253906 1.390625 -1.921875 C 1.066406 -2.597656 0.90625 -3.390625 0.90625 -4.296875 C 0.90625 -5.691406 1.253906 -6.773438 1.953125 -7.546875 C 2.648438 -8.328125 3.617188 -8.71875 4.859375 -8.71875 C 6.054688 -8.71875 7.003906 -8.316406 7.703125 -7.515625 C 8.410156 -6.722656 8.765625 -5.648438 8.765625 -4.296875 Z M 2.25 -4.296875 C 2.25 -3.203125 2.46875 -2.367188 2.90625 -1.796875 C 3.34375 -1.222656 3.984375 -0.9375 4.828125 -0.9375 C 5.679688 -0.9375 6.328125 -1.21875 6.765625 -1.78125 C 7.203125 -2.351562 7.421875 -3.191406 7.421875 -4.296875 C 7.421875 -5.378906 7.203125 -6.203125 6.765625 -6.765625 C 6.328125 -7.335938 5.675781 -7.625 4.8125 -7.625 C 3.96875 -7.625 3.328125 -7.34375 2.890625 -6.78125 C 2.460938 -6.226562 2.25 -5.398438 2.25 -4.296875 Z M 2.25 -4.296875 "/></g></g></g><g fill="#000000" fill-opacity="1"><g transform="translate(259.229632, 202.400027)"><g/></g></g><g fill="#000000" fill-opacity="1"><g transform="translate(263.384867, 202.400027)"><g><path d="M 4.359375 -6.984375 C 5.554688 -6.984375 6.5 -6.679688 7.1875 -6.078125 C 7.882812 -5.484375 8.234375 -4.671875 8.234375 -3.640625 C 8.234375 -2.453125 7.851562 -1.519531 7.09375 -0.84375 C 6.34375 -0.175781 5.304688 0.15625 3.984375 0.15625 C 2.703125 0.15625 1.722656 -0.0507812 1.046875 -0.46875 L 1.046875 -1.71875 C 1.410156 -1.476562 1.863281 -1.289062 2.40625 -1.15625 C 2.945312 -1.03125 3.476562 -0.96875 4 -0.96875 C 4.914062 -0.96875 5.628906 -1.179688 6.140625 -1.609375 C 6.648438 -2.046875 6.90625 -2.671875 6.90625 -3.484375 C 6.90625 -5.078125 5.925781 -5.875 3.96875 -5.875 C 3.476562 -5.875 2.816406 -5.800781 1.984375 -5.65625 L 1.3125 -6.078125 L 1.75 -11.421875 L 7.421875 -11.421875 L 7.421875 -10.234375 L 2.859375 -10.234375 L 2.5625 -6.796875 C 3.164062 -6.921875 3.765625 -6.984375 4.359375 -6.984375 Z M 4.359375 -6.984375 "/></g></g></g><g fill="#000000" fill-opacity="1"><g transform="translate(272.531076, 202.400027)"><g><path d="M 5.359375 0.15625 C 4.804688 0.15625 4.296875 0.0507812 3.828125 -0.15625 C 3.367188 -0.363281 2.984375 -0.679688 2.671875 -1.109375 L 2.578125 -1.109375 C 2.640625 -0.609375 2.671875 -0.128906 2.671875 0.328125 L 2.671875 3.84375 L 1.375 3.84375 L 1.375 -8.5625 L 2.4375 -8.5625 L 2.609375 -7.390625 L 2.671875 -7.390625 C 3.003906 -7.859375 3.390625 -8.195312 3.828125 -8.40625 C 4.273438 -8.613281 4.785156 -8.71875 5.359375 -8.71875 C 6.492188 -8.71875 7.367188 -8.328125 7.984375 -7.546875 C 8.609375 -6.773438 8.921875 -5.691406 8.921875 -4.296875 C 8.921875 -2.890625 8.601562 -1.796875 7.96875 -1.015625 C 7.34375 -0.234375 6.472656 0.15625 5.359375 0.15625 Z M 5.171875 -7.625 C 4.296875 -7.625 3.660156 -7.378906 3.265625 -6.890625 C 2.878906 -6.410156 2.679688 -5.640625 2.671875 -4.578125 L 2.671875 -4.296875 C 2.671875 -3.085938 2.867188 -2.222656 3.265625 -1.703125 C 3.671875 -1.191406 4.316406 -0.9375 5.203125 -0.9375 C 5.941406 -0.9375 6.519531 -1.234375 6.9375 -1.828125 C 7.363281 -2.429688 7.578125 -3.257812 7.578125 -4.3125 C 7.578125 -5.375 7.363281 -6.191406 6.9375 -6.765625 C 6.519531 -7.335938 5.929688 -7.625 5.171875 -7.625 Z M 5.171875 -7.625 "/></g></g></g><g fill="#000000" fill-opacity="1"><g transform="translate(282.333375, 202.400027)"><g><path d="M 3.4375 -4.390625 L 0.46875 -8.5625 L 1.9375 -8.5625 L 4.203125 -5.28125 L 6.453125 -8.5625 L 7.90625 -8.5625 L 4.9375 -4.390625 L 8.0625 0 L 6.59375 0 L 4.203125 -3.46875 L 1.78125 0 L 0.3125 0 Z M 3.4375 -4.390625 "/></g></g></g><g fill="#000000" fill-opacity="1"><g transform="translate(290.714158, 202.400027)"><g><path d="M 4.09375 -4.390625 C 4.09375 -3.015625 3.890625 -1.734375 3.484375 -0.546875 C 3.085938 0.628906 2.507812 1.65625 1.75 2.53125 L 0.5 2.53125 C 1.21875 1.550781 1.769531 0.460938 2.15625 -0.734375 C 2.539062 -1.929688 2.734375 -3.15625 2.734375 -4.40625 C 2.734375 -5.675781 2.546875 -6.910156 2.171875 -8.109375 C 1.796875 -9.316406 1.234375 -10.421875 0.484375 -11.421875 L 1.75 -11.421875 C 2.507812 -10.515625 3.085938 -9.457031 3.484375 -8.25 C 3.890625 -7.039062 4.09375 -5.753906 4.09375 -4.390625 Z M 4.09375 -4.390625 "/></g></g></g><g fill="#000000" fill-opacity="1"><g transform="translate(91.651038, 268.799982)"><g><path d="M 19.160156 -24.597656 L 19.160156 -27.199219 L 3 -27.199219 L 3 0 L 5.800781 0 L 5.800781 -12.277344 L 18.757812 -12.277344 L 18.757812 -14.917969 L 5.800781 -14.917969 L 5.800781 -24.597656 Z M 19.160156 -24.597656 "/></g></g></g><g fill="#000000" fill-opacity="1"><g transform="translate(111.609052, 268.799982)"><g><path d="M 15.160156 -3 L 15.160156 0 L 17.957031 0 L 17.957031 -17.597656 L 15.160156 -17.597656 L 15.160156 -10.238281 C 15.160156 -7.757812 14.679688 -5.878906 13.757812 -4.480469 C 12.878906 -3.121094 11.320312 -2.441406 9.160156 -2.441406 C 7.960938 -2.441406 7.078125 -2.839844 6.558594 -3.640625 C 6.039062 -4.441406 5.800781 -5.441406 5.800781 -6.597656 L 5.800781 -17.597656 L 3 -17.597656 L 3 -6.597656 C 3 -4.558594 3.519531 -2.878906 4.640625 -1.558594 C 5.757812 -0.28125 7.28125 0.359375 9.28125 0.359375 C 11.878906 0.359375 13.839844 -0.761719 15.160156 -3 Z M 15.160156 -3 "/></g></g></g><g fill="#000000" fill-opacity="1"><g transform="translate(131.967026, 268.799982)"><g><path d="M 20.199219 -9.199219 C 20.199219 -11.597656 19.238281 -13.679688 17.398438 -15.480469 C 15.597656 -17.199219 13.4375 -18.078125 11 -18.078125 C 8.441406 -18.078125 6.28125 -17.160156 4.480469 -15.359375 C 2.679688 -13.558594 1.800781 -11.398438 1.800781 -8.878906 C 1.800781 -6.320312 2.679688 -4.160156 4.480469 -2.398438 C 5.320312 -1.558594 6.28125 -0.921875 7.398438 -0.441406 C 8.519531 0.0390625 9.839844 0.28125 11.398438 0.28125 C 12.960938 0.28125 14.480469 -0.199219 16 -1.160156 C 17.519531 -2.121094 18.640625 -3.480469 19.398438 -5.160156 L 16.199219 -5.160156 C 15.558594 -4.320312 14.800781 -3.679688 13.878906 -3.199219 C 12.960938 -2.71875 12 -2.519531 11 -2.519531 C 9.480469 -2.519531 8.121094 -3 6.917969 -4 C 5.71875 -4.960938 4.960938 -6.199219 4.71875 -7.71875 L 20.199219 -7.71875 Z M 17.238281 -10.121094 L 4.757812 -10.121094 C 4.917969 -10.839844 5.199219 -11.519531 5.601562 -12.160156 C 6.878906 -14.238281 8.679688 -15.277344 11 -15.277344 C 12.480469 -15.277344 13.800781 -14.800781 14.960938 -13.839844 C 16.160156 -12.839844 16.878906 -11.597656 17.238281 -10.121094 Z M 17.238281 -10.121094 "/></g></g></g><g fill="#000000" fill-opacity="1"><g transform="translate(153.764861, 268.799982)"><g><path d="M 15.160156 0 L 17.957031 0 L 17.957031 -11 C 17.957031 -13.039062 17.398438 -14.679688 16.359375 -15.917969 C 15.800781 -16.558594 15.160156 -17.039062 14.398438 -17.398438 C 13.597656 -17.757812 12.597656 -17.957031 11.359375 -17.957031 C 10.078125 -17.957031 9 -17.597656 8.039062 -16.957031 C 7.121094 -16.359375 6.359375 -15.558594 5.800781 -14.558594 L 5.800781 -17.597656 L 3 -17.597656 L 3 0 L 5.800781 0 L 5.800781 -7.359375 C 5.800781 -9.597656 6.199219 -11.359375 7.039062 -12.679688 C 7.519531 -13.398438 8.121094 -14 8.878906 -14.480469 C 9.597656 -14.917969 10.597656 -15.160156 11.800781 -15.160156 C 13 -15.160156 13.839844 -14.71875 14.359375 -13.917969 C 14.878906 -13.121094 15.160156 -12.121094 15.160156 -11 Z M 15.160156 0 "/></g></g></g><g fill="#000000" fill-opacity="1"><g transform="translate(174.122835, 268.799982)"><g><path d="M 0.800781 -15 L 5.199219 -15 L 5.199219 0 L 8 0 L 8 -15 L 12.359375 -15 L 12.359375 -17.597656 L 8 -17.597656 L 8 -24.4375 L 5.199219 -24.4375 L 5.199219 -17.597656 L 0.800781 -17.597656 Z M 0.800781 -15 "/></g></g></g><g fill="#000000" fill-opacity="1"><g transform="translate(187.281525, 268.799982)"><g><path d="M 20.199219 -9.199219 C 20.199219 -11.597656 19.238281 -13.679688 17.398438 -15.480469 C 15.597656 -17.199219 13.4375 -18.078125 11 -18.078125 C 8.441406 -18.078125 6.28125 -17.160156 4.480469 -15.359375 C 2.679688 -13.558594 1.800781 -11.398438 1.800781 -8.878906 C 1.800781 -6.320312 2.679688 -4.160156 4.480469 -2.398438 C 5.320312 -1.558594 6.28125 -0.921875 7.398438 -0.441406 C 8.519531 0.0390625 9.839844 0.28125 11.398438 0.28125 C 12.960938 0.28125 14.480469 -0.199219 16 -1.160156 C 17.519531 -2.121094 18.640625 -3.480469 19.398438 -5.160156 L 16.199219 -5.160156 C 15.558594 -4.320312 14.800781 -3.679688 13.878906 -3.199219 C 12.960938 -2.71875 12 -2.519531 11 -2.519531 C 9.480469 -2.519531 8.121094 -3 6.917969 -4 C 5.71875 -4.960938 4.960938 -6.199219 4.71875 -7.71875 L 20.199219 -7.71875 Z M 17.238281 -10.121094 L 4.757812 -10.121094 C 4.917969 -10.839844 5.199219 -11.519531 5.601562 -12.160156 C 6.878906 -14.238281 8.679688 -15.277344 11 -15.277344 C 12.480469 -15.277344 13.800781 -14.800781 14.960938 -13.839844 C 16.160156 -12.839844 16.878906 -11.597656 17.238281 -10.121094 Z M 17.238281 -10.121094 "/></g></g></g><g fill="#000000" fill-opacity="1"><g transform="translate(209.07936, 268.799982)"><g/></g></g><g fill="#000000" fill-opacity="1"><g transform="translate(219.878291, 268.799982)"><g><path d="M 0.800781 -15 L 5.199219 -15 L 5.199219 0 L 8 0 L 8 -15 L 12.359375 -15 L 12.359375 -17.597656 L 8 -17.597656 L 8 -24.4375 L 5.199219 -24.4375 L 5.199219 -17.597656 L 0.800781 -17.597656 Z M 0.800781 -15 "/></g></g></g><g fill="#000000" fill-opacity="1"><g transform="translate(233.036981, 268.799982)"><g><path d="M 12.039062 -13.960938 L 12.039062 -17.597656 C 11.480469 -17.839844 10.878906 -17.957031 10.28125 -17.957031 C 8.28125 -17.957031 6.839844 -16.839844 5.917969 -14.679688 L 5.800781 -13.960938 L 5.800781 -17.597656 L 3 -17.597656 L 3 0 L 5.800781 0 L 5.800781 -8.800781 C 5.800781 -10.238281 6.121094 -11.519531 6.800781 -12.679688 C 7.121094 -13.277344 7.558594 -13.800781 8.078125 -14.199219 C 8.597656 -14.597656 9.238281 -14.839844 9.960938 -14.839844 C 10.679688 -14.839844 11.359375 -14.519531 12.039062 -13.960938 Z M 12.039062 -13.960938 "/></g></g></g><g fill="#000000" fill-opacity="1"><g transform="translate(245.475747, 268.799982)"><g><path d="M 20.199219 -9.199219 C 20.199219 -11.597656 19.238281 -13.679688 17.398438 -15.480469 C 15.597656 -17.199219 13.4375 -18.078125 11 -18.078125 C 8.441406 -18.078125 6.28125 -17.160156 4.480469 -15.359375 C 2.679688 -13.558594 1.800781 -11.398438 1.800781 -8.878906 C 1.800781 -6.320312 2.679688 -4.160156 4.480469 -2.398438 C 5.320312 -1.558594 6.28125 -0.921875 7.398438 -0.441406 C 8.519531 0.0390625 9.839844 0.28125 11.398438 0.28125 C 12.960938 0.28125 14.480469 -0.199219 16 -1.160156 C 17.519531 -2.121094 18.640625 -3.480469 19.398438 -5.160156 L 16.199219 -5.160156 C 15.558594 -4.320312 14.800781 -3.679688 13.878906 -3.199219 C 12.960938 -2.71875 12 -2.519531 11 -2.519531 C 9.480469 -2.519531 8.121094 -3 6.917969 -4 C 5.71875 -4.960938 4.960938 -6.199219 4.71875 -7.71875 L 20.199219 -7.71875 Z M 17.238281 -10.121094 L 4.757812 -10.121094 C 4.917969 -10.839844 5.199219 -11.519531 5.601562 -12.160156 C 6.878906 -14.238281 8.679688 -15.277344 11 -15.277344 C 12.480469 -15.277344 13.800781 -14.800781 14.960938 -13.839844 C 16.160156 -12.839844 16.878906 -11.597656 17.238281 -10.121094 Z M 17.238281 -10.121094 "/></g></g></g><g fill="#000000" fill-opacity="1"><g transform="translate(267.273582, 268.799982)"><g><path d="M 5.519531 -2.480469 C 4.839844 -2.960938 4.320312 -3.757812 4.039062 -4.917969 L 1.078125 -4.917969 C 1.679688 -1.28125 4 0.519531 8.078125 0.519531 C 9.039062 0.519531 9.917969 0.441406 10.757812 0.199219 C 11.597656 -0.0390625 12.320312 -0.359375 13 -0.800781 C 14.359375 -1.71875 15.039062 -3.121094 15.039062 -5 C 15.039062 -6.917969 14.160156 -8.28125 12.320312 -9.160156 C 11.558594 -9.519531 10.71875 -9.800781 9.800781 -10 C 8.917969 -10.199219 8.078125 -10.4375 7.320312 -10.679688 C 6.519531 -10.917969 5.878906 -11.238281 5.359375 -11.597656 C 4.839844 -11.960938 4.558594 -12.519531 4.558594 -13.320312 C 4.558594 -14.117188 4.878906 -14.71875 5.519531 -15.078125 C 6.160156 -15.480469 6.917969 -15.679688 7.757812 -15.679688 C 8.640625 -15.679688 9.398438 -15.480469 10 -15.160156 C 10.597656 -14.839844 11.078125 -14.199219 11.359375 -13.238281 L 14.359375 -13.238281 C 14 -15 13.238281 -16.238281 12.121094 -16.917969 C 10.960938 -17.640625 9.558594 -18 7.839844 -18 C 6.160156 -18 4.679688 -17.519531 3.441406 -16.640625 C 2.238281 -15.71875 1.601562 -14.398438 1.601562 -12.640625 C 1.601562 -11.800781 1.839844 -11.039062 2.28125 -10.398438 C 2.761719 -9.71875 3.441406 -9.199219 4.320312 -8.800781 C 5.121094 -8.441406 5.960938 -8.160156 6.839844 -7.917969 C 7.71875 -7.71875 8.558594 -7.480469 9.359375 -7.238281 C 11.160156 -6.640625 12.078125 -5.757812 12.078125 -4.640625 C 12.078125 -2.71875 10.800781 -1.800781 8.238281 -1.800781 C 7.160156 -1.800781 6.238281 -2 5.519531 -2.480469 Z M 5.519531 -2.480469 "/></g></g></g><g fill="#000000" fill-opacity="1"><g transform="translate(53.191407, 302.19994)"><g><path d="M 8.390625 -8.5625 L 8.390625 -7.75 L 6.796875 -7.5625 C 6.941406 -7.375 7.070312 -7.132812 7.1875 -6.84375 C 7.300781 -6.550781 7.359375 -6.21875 7.359375 -5.84375 C 7.359375 -5.007812 7.070312 -4.34375 6.5 -3.84375 C 5.925781 -3.34375 5.140625 -3.09375 4.140625 -3.09375 C 3.890625 -3.09375 3.648438 -3.113281 3.421875 -3.15625 C 2.867188 -2.863281 2.59375 -2.492188 2.59375 -2.046875 C 2.59375 -1.816406 2.6875 -1.644531 2.875 -1.53125 C 3.070312 -1.414062 3.40625 -1.359375 3.875 -1.359375 L 5.390625 -1.359375 C 6.316406 -1.359375 7.03125 -1.160156 7.53125 -0.765625 C 8.03125 -0.378906 8.28125 0.1875 8.28125 0.9375 C 8.28125 1.882812 7.898438 2.601562 7.140625 3.09375 C 6.378906 3.59375 5.269531 3.84375 3.8125 3.84375 C 2.6875 3.84375 1.820312 3.632812 1.21875 3.21875 C 0.613281 2.800781 0.3125 2.210938 0.3125 1.453125 C 0.3125 0.929688 0.476562 0.476562 0.8125 0.09375 C 1.144531 -0.28125 1.613281 -0.535156 2.21875 -0.671875 C 2 -0.773438 1.8125 -0.929688 1.65625 -1.140625 C 1.507812 -1.347656 1.4375 -1.585938 1.4375 -1.859375 C 1.4375 -2.171875 1.519531 -2.441406 1.6875 -2.671875 C 1.851562 -2.910156 2.117188 -3.140625 2.484375 -3.359375 C 2.035156 -3.546875 1.671875 -3.859375 1.390625 -4.296875 C 1.117188 -4.734375 0.984375 -5.234375 0.984375 -5.796875 C 0.984375 -6.734375 1.265625 -7.453125 1.828125 -7.953125 C 2.390625 -8.460938 3.1875 -8.71875 4.21875 -8.71875 C 4.664062 -8.71875 5.066406 -8.664062 5.421875 -8.5625 Z M 1.5625 1.4375 C 1.5625 1.90625 1.753906 2.257812 2.140625 2.5 C 2.535156 2.738281 3.097656 2.859375 3.828125 2.859375 C 4.910156 2.859375 5.710938 2.691406 6.234375 2.359375 C 6.765625 2.035156 7.03125 1.597656 7.03125 1.046875 C 7.03125 0.578125 6.882812 0.25 6.59375 0.0625 C 6.3125 -0.113281 5.773438 -0.203125 4.984375 -0.203125 L 3.421875 -0.203125 C 2.835938 -0.203125 2.378906 -0.0625 2.046875 0.21875 C 1.722656 0.507812 1.5625 0.914062 1.5625 1.4375 Z M 2.265625 -5.828125 C 2.265625 -5.222656 2.429688 -4.765625 2.765625 -4.453125 C 3.109375 -4.148438 3.582031 -4 4.1875 -4 C 5.445312 -4 6.078125 -4.613281 6.078125 -5.84375 C 6.078125 -7.132812 5.4375 -7.78125 4.15625 -7.78125 C 3.550781 -7.78125 3.082031 -7.613281 2.75 -7.28125 C 2.425781 -6.957031 2.265625 -6.472656 2.265625 -5.828125 Z M 2.265625 -5.828125 "/></g></g></g><g fill="#000000" fill-opacity="1"><g transform="translate(61.954892, 302.19994)"><g><path d="M 2.671875 0 L 1.375 0 L 1.375 -12.15625 L 2.671875 -12.15625 Z M 2.671875 0 "/></g></g></g><g fill="#000000" fill-opacity="1"><g transform="translate(66.000778, 302.19994)"><g><path d="M 6.640625 0 L 6.390625 -1.21875 L 6.328125 -1.21875 C 5.898438 -0.6875 5.472656 -0.320312 5.046875 -0.125 C 4.617188 0.0625 4.085938 0.15625 3.453125 0.15625 C 2.609375 0.15625 1.941406 -0.0625 1.453125 -0.5 C 0.972656 -0.9375 0.734375 -1.5625 0.734375 -2.375 C 0.734375 -4.101562 2.117188 -5.007812 4.890625 -5.09375 L 6.34375 -5.140625 L 6.34375 -5.671875 C 6.34375 -6.335938 6.195312 -6.832031 5.90625 -7.15625 C 5.613281 -7.476562 5.148438 -7.640625 4.515625 -7.640625 C 3.804688 -7.640625 3 -7.421875 2.09375 -6.984375 L 1.703125 -7.96875 C 2.117188 -8.195312 2.578125 -8.375 3.078125 -8.5 C 3.585938 -8.632812 4.09375 -8.703125 4.59375 -8.703125 C 5.613281 -8.703125 6.367188 -8.472656 6.859375 -8.015625 C 7.359375 -7.566406 7.609375 -6.84375 7.609375 -5.84375 L 7.609375 0 Z M 3.71875 -0.921875 C 4.519531 -0.921875 5.148438 -1.140625 5.609375 -1.578125 C 6.078125 -2.023438 6.3125 -2.644531 6.3125 -3.4375 L 6.3125 -4.21875 L 5.015625 -4.15625 C 3.984375 -4.125 3.238281 -3.960938 2.78125 -3.671875 C 2.320312 -3.390625 2.09375 -2.953125 2.09375 -2.359375 C 2.09375 -1.890625 2.234375 -1.53125 2.515625 -1.28125 C 2.804688 -1.039062 3.207031 -0.921875 3.71875 -0.921875 Z M 3.71875 -0.921875 "/></g></g></g><g fill="#000000" fill-opacity="1"><g transform="translate(74.897049, 302.19994)"><g><path d="M 4.796875 0.15625 C 3.554688 0.15625 2.597656 -0.222656 1.921875 -0.984375 C 1.242188 -1.753906 0.90625 -2.835938 0.90625 -4.234375 C 0.90625 -5.660156 1.25 -6.765625 1.9375 -7.546875 C 2.625 -8.328125 3.609375 -8.71875 4.890625 -8.71875 C 5.296875 -8.71875 5.703125 -8.671875 6.109375 -8.578125 C 6.523438 -8.492188 6.851562 -8.394531 7.09375 -8.28125 L 6.6875 -7.171875 C 6.40625 -7.285156 6.09375 -7.378906 5.75 -7.453125 C 5.414062 -7.535156 5.117188 -7.578125 4.859375 -7.578125 C 3.117188 -7.578125 2.25 -6.46875 2.25 -4.25 C 2.25 -3.195312 2.457031 -2.390625 2.875 -1.828125 C 3.300781 -1.265625 3.929688 -0.984375 4.765625 -0.984375 C 5.484375 -0.984375 6.21875 -1.132812 6.96875 -1.4375 L 6.96875 -0.296875 C 6.394531 0.00390625 5.671875 0.15625 4.796875 0.15625 Z M 4.796875 0.15625 "/></g></g></g><g fill="#000000" fill-opacity="1"><g transform="translate(82.512382, 302.19994)"><g><path d="M 2.671875 0 L 1.375 0 L 1.375 -8.5625 L 2.671875 -8.5625 Z M 1.265625 -10.890625 C 1.265625 -11.179688 1.335938 -11.394531 1.484375 -11.53125 C 1.628906 -11.675781 1.8125 -11.75 2.03125 -11.75 C 2.238281 -11.75 2.414062 -11.675781 2.5625 -11.53125 C 2.71875 -11.394531 2.796875 -11.179688 2.796875 -10.890625 C 2.796875 -10.597656 2.71875 -10.378906 2.5625 -10.234375 C 2.414062 -10.085938 2.238281 -10.015625 2.03125 -10.015625 C 1.8125 -10.015625 1.628906 -10.085938 1.484375 -10.234375 C 1.335938 -10.378906 1.265625 -10.597656 1.265625 -10.890625 Z M 1.265625 -10.890625 "/></g></g></g><g fill="#000000" fill-opacity="1"><g transform="translate(86.558268, 302.19994)"><g><path d="M 6.640625 0 L 6.390625 -1.21875 L 6.328125 -1.21875 C 5.898438 -0.6875 5.472656 -0.320312 5.046875 -0.125 C 4.617188 0.0625 4.085938 0.15625 3.453125 0.15625 C 2.609375 0.15625 1.941406 -0.0625 1.453125 -0.5 C 0.972656 -0.9375 0.734375 -1.5625 0.734375 -2.375 C 0.734375 -4.101562 2.117188 -5.007812 4.890625 -5.09375 L 6.34375 -5.140625 L 6.34375 -5.671875 C 6.34375 -6.335938 6.195312 -6.832031 5.90625 -7.15625 C 5.613281 -7.476562 5.148438 -7.640625 4.515625 -7.640625 C 3.804688 -7.640625 3 -7.421875 2.09375 -6.984375 L 1.703125 -7.96875 C 2.117188 -8.195312 2.578125 -8.375 3.078125 -8.5 C 3.585938 -8.632812 4.09375 -8.703125 4.59375 -8.703125 C 5.613281 -8.703125 6.367188 -8.472656 6.859375 -8.015625 C 7.359375 -7.566406 7.609375 -6.84375 7.609375 -5.84375 L 7.609375 0 Z M 3.71875 -0.921875 C 4.519531 -0.921875 5.148438 -1.140625 5.609375 -1.578125 C 6.078125 -2.023438 6.3125 -2.644531 6.3125 -3.4375 L 6.3125 -4.21875 L 5.015625 -4.15625 C 3.984375 -4.125 3.238281 -3.960938 2.78125 -3.671875 C 2.320312 -3.390625 2.09375 -2.953125 2.09375 -2.359375 C 2.09375 -1.890625 2.234375 -1.53125 2.515625 -1.28125 C 2.804688 -1.039062 3.207031 -0.921875 3.71875 -0.921875 Z M 3.71875 -0.921875 "/></g></g></g><g fill="#000000" fill-opacity="1"><g transform="translate(95.454538, 302.19994)"><g><path d="M 2.671875 0 L 1.375 0 L 1.375 -12.15625 L 2.671875 -12.15625 Z M 2.671875 0 "/></g></g></g><g fill="#000000" fill-opacity="1"><g transform="translate(99.500425, 302.19994)"><g/></g></g><g fill="#000000" fill-opacity="1"><g transform="translate(103.65566, 302.19994)"><g><path d="M 2.671875 0 L 1.375 0 L 1.375 -8.5625 L 2.671875 -8.5625 Z M 1.265625 -10.890625 C 1.265625 -11.179688 1.335938 -11.394531 1.484375 -11.53125 C 1.628906 -11.675781 1.8125 -11.75 2.03125 -11.75 C 2.238281 -11.75 2.414062 -11.675781 2.5625 -11.53125 C 2.71875 -11.394531 2.796875 -11.179688 2.796875 -10.890625 C 2.796875 -10.597656 2.71875 -10.378906 2.5625 -10.234375 C 2.414062 -10.085938 2.238281 -10.015625 2.03125 -10.015625 C 1.8125 -10.015625 1.628906 -10.085938 1.484375 -10.234375 C 1.335938 -10.378906 1.265625 -10.597656 1.265625 -10.890625 Z M 1.265625 -10.890625 "/></g></g></g><g fill="#000000" fill-opacity="1"><g transform="translate(107.701547, 302.19994)"><g><path d="M 7.234375 0 L 7.234375 -5.546875 C 7.234375 -6.242188 7.070312 -6.765625 6.75 -7.109375 C 6.4375 -7.453125 5.941406 -7.625 5.265625 -7.625 C 4.367188 -7.625 3.710938 -7.378906 3.296875 -6.890625 C 2.878906 -6.410156 2.671875 -5.613281 2.671875 -4.5 L 2.671875 0 L 1.375 0 L 1.375 -8.5625 L 2.4375 -8.5625 L 2.640625 -7.390625 L 2.703125 -7.390625 C 2.972656 -7.816406 3.347656 -8.144531 3.828125 -8.375 C 4.304688 -8.601562 4.835938 -8.71875 5.421875 -8.71875 C 6.453125 -8.71875 7.226562 -8.46875 7.75 -7.96875 C 8.269531 -7.476562 8.53125 -6.6875 8.53125 -5.59375 L 8.53125 0 Z M 7.234375 0 "/></g></g></g><g fill="#000000" fill-opacity="1"><g transform="translate(117.519467, 302.19994)"><g><path d="M 7.203125 -1.15625 L 7.140625 -1.15625 C 6.535156 -0.28125 5.640625 0.15625 4.453125 0.15625 C 3.328125 0.15625 2.453125 -0.222656 1.828125 -0.984375 C 1.210938 -1.753906 0.90625 -2.847656 0.90625 -4.265625 C 0.90625 -5.671875 1.21875 -6.765625 1.84375 -7.546875 C 2.46875 -8.328125 3.335938 -8.71875 4.453125 -8.71875 C 5.609375 -8.71875 6.5 -8.296875 7.125 -7.453125 L 7.21875 -7.453125 L 7.171875 -8.078125 L 7.140625 -8.671875 L 7.140625 -12.15625 L 8.4375 -12.15625 L 8.4375 0 L 7.375 0 Z M 4.609375 -0.9375 C 5.492188 -0.9375 6.132812 -1.175781 6.53125 -1.65625 C 6.9375 -2.132812 7.140625 -2.910156 7.140625 -3.984375 L 7.140625 -4.265625 C 7.140625 -5.472656 6.9375 -6.335938 6.53125 -6.859375 C 6.125 -7.378906 5.476562 -7.640625 4.59375 -7.640625 C 3.832031 -7.640625 3.25 -7.34375 2.84375 -6.75 C 2.445312 -6.15625 2.25 -5.320312 2.25 -4.25 C 2.25 -3.15625 2.445312 -2.328125 2.84375 -1.765625 C 3.25 -1.210938 3.835938 -0.9375 4.609375 -0.9375 Z M 4.609375 -0.9375 "/></g></g></g><g fill="#000000" fill-opacity="1"><g transform="translate(127.321766, 302.19994)"><g><path d="M 2.671875 0 L 1.375 0 L 1.375 -8.5625 L 2.671875 -8.5625 Z M 1.265625 -10.890625 C 1.265625 -11.179688 1.335938 -11.394531 1.484375 -11.53125 C 1.628906 -11.675781 1.8125 -11.75 2.03125 -11.75 C 2.238281 -11.75 2.414062 -11.675781 2.5625 -11.53125 C 2.71875 -11.394531 2.796875 -11.179688 2.796875 -10.890625 C 2.796875 -10.597656 2.71875 -10.378906 2.5625 -10.234375 C 2.414062 -10.085938 2.238281 -10.015625 2.03125 -10.015625 C 1.8125 -10.015625 1.628906 -10.085938 1.484375 -10.234375 C 1.335938 -10.378906 1.265625 -10.597656 1.265625 -10.890625 Z M 1.265625 -10.890625 "/></g></g></g><g fill="#000000" fill-opacity="1"><g transform="translate(131.367653, 302.19994)"><g><path d="M 5.234375 -7.5625 L 3.0625 -7.5625 L 3.0625 0 L 1.765625 0 L 1.765625 -7.5625 L 0.234375 -7.5625 L 0.234375 -8.140625 L 1.765625 -8.609375 L 1.765625 -9.09375 C 1.765625 -11.195312 2.679688 -12.25 4.515625 -12.25 C 4.972656 -12.25 5.503906 -12.15625 6.109375 -11.96875 L 5.78125 -10.9375 C 5.28125 -11.09375 4.851562 -11.171875 4.5 -11.171875 C 4.007812 -11.171875 3.644531 -11.007812 3.40625 -10.6875 C 3.175781 -10.363281 3.0625 -9.84375 3.0625 -9.125 L 3.0625 -8.5625 L 5.234375 -8.5625 Z M 5.234375 -7.5625 "/></g></g></g><g fill="#000000" fill-opacity="1"><g transform="translate(136.788203, 302.19994)"><g><path d="M 5.234375 -7.5625 L 3.0625 -7.5625 L 3.0625 0 L 1.765625 0 L 1.765625 -7.5625 L 0.234375 -7.5625 L 0.234375 -8.140625 L 1.765625 -8.609375 L 1.765625 -9.09375 C 1.765625 -11.195312 2.679688 -12.25 4.515625 -12.25 C 4.972656 -12.25 5.503906 -12.15625 6.109375 -11.96875 L 5.78125 -10.9375 C 5.28125 -11.09375 4.851562 -11.171875 4.5 -11.171875 C 4.007812 -11.171875 3.644531 -11.007812 3.40625 -10.6875 C 3.175781 -10.363281 3.0625 -9.84375 3.0625 -9.125 L 3.0625 -8.5625 L 5.234375 -8.5625 Z M 5.234375 -7.5625 "/></g></g></g><g fill="#000000" fill-opacity="1"><g transform="translate(142.208754, 302.19994)"><g><path d="M 5 0.15625 C 3.726562 0.15625 2.726562 -0.226562 2 -1 C 1.269531 -1.769531 0.90625 -2.84375 0.90625 -4.21875 C 0.90625 -5.59375 1.242188 -6.6875 1.921875 -7.5 C 2.597656 -8.3125 3.507812 -8.71875 4.65625 -8.71875 C 5.726562 -8.71875 6.578125 -8.363281 7.203125 -7.65625 C 7.828125 -6.957031 8.140625 -6.03125 8.140625 -4.875 L 8.140625 -4.046875 L 2.25 -4.046875 C 2.269531 -3.046875 2.519531 -2.285156 3 -1.765625 C 3.488281 -1.242188 4.171875 -0.984375 5.046875 -0.984375 C 5.960938 -0.984375 6.875 -1.175781 7.78125 -1.5625 L 7.78125 -0.40625 C 7.320312 -0.207031 6.882812 -0.0664062 6.46875 0.015625 C 6.0625 0.109375 5.570312 0.15625 5 0.15625 Z M 4.640625 -7.640625 C 3.953125 -7.640625 3.40625 -7.414062 3 -6.96875 C 2.59375 -6.519531 2.351562 -5.898438 2.28125 -5.109375 L 6.75 -5.109375 C 6.75 -5.921875 6.566406 -6.546875 6.203125 -6.984375 C 5.835938 -7.421875 5.316406 -7.640625 4.640625 -7.640625 Z M 4.640625 -7.640625 "/></g></g></g><g fill="#000000" fill-opacity="1"><g transform="translate(151.183131, 302.19994)"><g><path d="M 5.28125 -8.71875 C 5.664062 -8.71875 6.007812 -8.6875 6.3125 -8.625 L 6.125 -7.421875 C 5.769531 -7.503906 5.457031 -7.546875 5.1875 -7.546875 C 4.5 -7.546875 3.90625 -7.265625 3.40625 -6.703125 C 2.914062 -6.140625 2.671875 -5.4375 2.671875 -4.59375 L 2.671875 0 L 1.375 0 L 1.375 -8.5625 L 2.453125 -8.5625 L 2.59375 -6.984375 L 2.65625 -6.984375 C 2.976562 -7.535156 3.363281 -7.960938 3.8125 -8.265625 C 4.257812 -8.566406 4.75 -8.71875 5.28125 -8.71875 Z M 5.28125 -8.71875 "/></g></g></g><g fill="#000000" fill-opacity="1"><g transform="translate(157.712786, 302.19994)"><g><path d="M 5 0.15625 C 3.726562 0.15625 2.726562 -0.226562 2 -1 C 1.269531 -1.769531 0.90625 -2.84375 0.90625 -4.21875 C 0.90625 -5.59375 1.242188 -6.6875 1.921875 -7.5 C 2.597656 -8.3125 3.507812 -8.71875 4.65625 -8.71875 C 5.726562 -8.71875 6.578125 -8.363281 7.203125 -7.65625 C 7.828125 -6.957031 8.140625 -6.03125 8.140625 -4.875 L 8.140625 -4.046875 L 2.25 -4.046875 C 2.269531 -3.046875 2.519531 -2.285156 3 -1.765625 C 3.488281 -1.242188 4.171875 -0.984375 5.046875 -0.984375 C 5.960938 -0.984375 6.875 -1.175781 7.78125 -1.5625 L 7.78125 -0.40625 C 7.320312 -0.207031 6.882812 -0.0664062 6.46875 0.015625 C 6.0625 0.109375 5.570312 0.15625 5 0.15625 Z M 4.640625 -7.640625 C 3.953125 -7.640625 3.40625 -7.414062 3 -6.96875 C 2.59375 -6.519531 2.351562 -5.898438 2.28125 -5.109375 L 6.75 -5.109375 C 6.75 -5.921875 6.566406 -6.546875 6.203125 -6.984375 C 5.835938 -7.421875 5.316406 -7.640625 4.640625 -7.640625 Z M 4.640625 -7.640625 "/></g></g></g><g fill="#000000" fill-opacity="1"><g transform="translate(166.687162, 302.19994)"><g><path d="M 7.234375 0 L 7.234375 -5.546875 C 7.234375 -6.242188 7.070312 -6.765625 6.75 -7.109375 C 6.4375 -7.453125 5.941406 -7.625 5.265625 -7.625 C 4.367188 -7.625 3.710938 -7.378906 3.296875 -6.890625 C 2.878906 -6.410156 2.671875 -5.613281 2.671875 -4.5 L 2.671875 0 L 1.375 0 L 1.375 -8.5625 L 2.4375 -8.5625 L 2.640625 -7.390625 L 2.703125 -7.390625 C 2.972656 -7.816406 3.347656 -8.144531 3.828125 -8.375 C 4.304688 -8.601562 4.835938 -8.71875 5.421875 -8.71875 C 6.453125 -8.71875 7.226562 -8.46875 7.75 -7.96875 C 8.269531 -7.476562 8.53125 -6.6875 8.53125 -5.59375 L 8.53125 0 Z M 7.234375 0 "/></g></g></g><g fill="#000000" fill-opacity="1"><g transform="translate(176.505082, 302.19994)"><g><path d="M 4.796875 0.15625 C 3.554688 0.15625 2.597656 -0.222656 1.921875 -0.984375 C 1.242188 -1.753906 0.90625 -2.835938 0.90625 -4.234375 C 0.90625 -5.660156 1.25 -6.765625 1.9375 -7.546875 C 2.625 -8.328125 3.609375 -8.71875 4.890625 -8.71875 C 5.296875 -8.71875 5.703125 -8.671875 6.109375 -8.578125 C 6.523438 -8.492188 6.851562 -8.394531 7.09375 -8.28125 L 6.6875 -7.171875 C 6.40625 -7.285156 6.09375 -7.378906 5.75 -7.453125 C 5.414062 -7.535156 5.117188 -7.578125 4.859375 -7.578125 C 3.117188 -7.578125 2.25 -6.46875 2.25 -4.25 C 2.25 -3.195312 2.457031 -2.390625 2.875 -1.828125 C 3.300781 -1.265625 3.929688 -0.984375 4.765625 -0.984375 C 5.484375 -0.984375 6.21875 -1.132812 6.96875 -1.4375 L 6.96875 -0.296875 C 6.394531 0.00390625 5.671875 0.15625 4.796875 0.15625 Z M 4.796875 0.15625 "/></g></g></g><g fill="#000000" fill-opacity="1"><g transform="translate(184.120415, 302.19994)"><g><path d="M 5 0.15625 C 3.726562 0.15625 2.726562 -0.226562 2 -1 C 1.269531 -1.769531 0.90625 -2.84375 0.90625 -4.21875 C 0.90625 -5.59375 1.242188 -6.6875 1.921875 -7.5 C 2.597656 -8.3125 3.507812 -8.71875 4.65625 -8.71875 C 5.726562 -8.71875 6.578125 -8.363281 7.203125 -7.65625 C 7.828125 -6.957031 8.140625 -6.03125 8.140625 -4.875 L 8.140625 -4.046875 L 2.25 -4.046875 C 2.269531 -3.046875 2.519531 -2.285156 3 -1.765625 C 3.488281 -1.242188 4.171875 -0.984375 5.046875 -0.984375 C 5.960938 -0.984375 6.875 -1.175781 7.78125 -1.5625 L 7.78125 -0.40625 C 7.320312 -0.207031 6.882812 -0.0664062 6.46875 0.015625 C 6.0625 0.109375 5.570312 0.15625 5 0.15625 Z M 4.640625 -7.640625 C 3.953125 -7.640625 3.40625 -7.414062 3 -6.96875 C 2.59375 -6.519531 2.351562 -5.898438 2.28125 -5.109375 L 6.75 -5.109375 C 6.75 -5.921875 6.566406 -6.546875 6.203125 -6.984375 C 5.835938 -7.421875 5.316406 -7.640625 4.640625 -7.640625 Z M 4.640625 -7.640625 "/></g></g></g><g fill="#000000" fill-opacity="1"><g transform="translate(193.094791, 302.19994)"><g/></g></g><g fill="#000000" fill-opacity="1"><g transform="translate(197.250026, 302.19994)"><g><path d="M 0.640625 -4.390625 C 0.640625 -5.765625 0.84375 -7.050781 1.25 -8.25 C 1.65625 -9.457031 2.238281 -10.515625 3 -11.421875 L 4.265625 -11.421875 C 3.515625 -10.421875 2.945312 -9.316406 2.5625 -8.109375 C 2.1875 -6.910156 2 -5.675781 2 -4.40625 C 2 -3.15625 2.191406 -1.929688 2.578125 -0.734375 C 2.960938 0.460938 3.519531 1.550781 4.25 2.53125 L 3 2.53125 C 2.226562 1.644531 1.640625 0.613281 1.234375 -0.5625 C 0.835938 -1.75 0.640625 -3.023438 0.640625 -4.390625 Z M 0.640625 -4.390625 "/></g></g></g><g fill="#000000" fill-opacity="1"><g transform="translate(201.983245, 302.19994)"><g><path d="M 4.796875 0.15625 C 3.554688 0.15625 2.597656 -0.222656 1.921875 -0.984375 C 1.242188 -1.753906 0.90625 -2.835938 0.90625 -4.234375 C 0.90625 -5.660156 1.25 -6.765625 1.9375 -7.546875 C 2.625 -8.328125 3.609375 -8.71875 4.890625 -8.71875 C 5.296875 -8.71875 5.703125 -8.671875 6.109375 -8.578125 C 6.523438 -8.492188 6.851562 -8.394531 7.09375 -8.28125 L 6.6875 -7.171875 C 6.40625 -7.285156 6.09375 -7.378906 5.75 -7.453125 C 5.414062 -7.535156 5.117188 -7.578125 4.859375 -7.578125 C 3.117188 -7.578125 2.25 -6.46875 2.25 -4.25 C 2.25 -3.195312 2.457031 -2.390625 2.875 -1.828125 C 3.300781 -1.265625 3.929688 -0.984375 4.765625 -0.984375 C 5.484375 -0.984375 6.21875 -1.132812 6.96875 -1.4375 L 6.96875 -0.296875 C 6.394531 0.00390625 5.671875 0.15625 4.796875 0.15625 Z M 4.796875 0.15625 "/></g></g></g><g fill="#000000" fill-opacity="1"><g transform="translate(209.598578, 302.19994)"><g><path d="M 8.765625 -4.296875 C 8.765625 -2.898438 8.410156 -1.804688 7.703125 -1.015625 C 7.003906 -0.234375 6.035156 0.15625 4.796875 0.15625 C 4.035156 0.15625 3.359375 -0.0195312 2.765625 -0.375 C 2.171875 -0.738281 1.710938 -1.253906 1.390625 -1.921875 C 1.066406 -2.597656 0.90625 -3.390625 0.90625 -4.296875 C 0.90625 -5.691406 1.253906 -6.773438 1.953125 -7.546875 C 2.648438 -8.328125 3.617188 -8.71875 4.859375 -8.71875 C 6.054688 -8.71875 7.003906 -8.316406 7.703125 -7.515625 C 8.410156 -6.722656 8.765625 -5.648438 8.765625 -4.296875 Z M 2.25 -4.296875 C 2.25 -3.203125 2.46875 -2.367188 2.90625 -1.796875 C 3.34375 -1.222656 3.984375 -0.9375 4.828125 -0.9375 C 5.679688 -0.9375 6.328125 -1.21875 6.765625 -1.78125 C 7.203125 -2.351562 7.421875 -3.191406 7.421875 -4.296875 C 7.421875 -5.378906 7.203125 -6.203125 6.765625 -6.765625 C 6.328125 -7.335938 5.675781 -7.625 4.8125 -7.625 C 3.96875 -7.625 3.328125 -7.34375 2.890625 -6.78125 C 2.460938 -6.226562 2.25 -5.398438 2.25 -4.296875 Z M 2.25 -4.296875 "/></g></g></g><g fill="#000000" fill-opacity="1"><g transform="translate(219.260286, 302.19994)"><g><path d="M 7.234375 0 L 7.234375 -5.546875 C 7.234375 -6.242188 7.070312 -6.765625 6.75 -7.109375 C 6.4375 -7.453125 5.941406 -7.625 5.265625 -7.625 C 4.367188 -7.625 3.710938 -7.378906 3.296875 -6.890625 C 2.878906 -6.410156 2.671875 -5.613281 2.671875 -4.5 L 2.671875 0 L 1.375 0 L 1.375 -8.5625 L 2.4375 -8.5625 L 2.640625 -7.390625 L 2.703125 -7.390625 C 2.972656 -7.816406 3.347656 -8.144531 3.828125 -8.375 C 4.304688 -8.601562 4.835938 -8.71875 5.421875 -8.71875 C 6.453125 -8.71875 7.226562 -8.46875 7.75 -7.96875 C 8.269531 -7.476562 8.53125 -6.6875 8.53125 -5.59375 L 8.53125 0 Z M 7.234375 0 "/></g></g></g><g fill="#000000" fill-opacity="1"><g transform="translate(229.078206, 302.19994)"><g/></g></g><g fill="#000000" fill-opacity="1"><g transform="translate(233.233441, 302.19994)"><g><path d="M 2.671875 0 L 1.375 0 L 1.375 -8.5625 L 2.671875 -8.5625 Z M 1.265625 -10.890625 C 1.265625 -11.179688 1.335938 -11.394531 1.484375 -11.53125 C 1.628906 -11.675781 1.8125 -11.75 2.03125 -11.75 C 2.238281 -11.75 2.414062 -11.675781 2.5625 -11.53125 C 2.71875 -11.394531 2.796875 -11.179688 2.796875 -10.890625 C 2.796875 -10.597656 2.71875 -10.378906 2.5625 -10.234375 C 2.414062 -10.085938 2.238281 -10.015625 2.03125 -10.015625 C 1.8125 -10.015625 1.628906 -10.085938 1.484375 -10.234375 C 1.335938 -10.378906 1.265625 -10.597656 1.265625 -10.890625 Z M 1.265625 -10.890625 "/></g></g></g><g fill="#000000" fill-opacity="1"><g transform="translate(237.279328, 302.19994)"><g><path d="M 7.234375 0 L 7.234375 -5.546875 C 7.234375 -6.242188 7.070312 -6.765625 6.75 -7.109375 C 6.4375 -7.453125 5.941406 -7.625 5.265625 -7.625 C 4.367188 -7.625 3.710938 -7.378906 3.296875 -6.890625 C 2.878906 -6.410156 2.671875 -5.613281 2.671875 -4.5 L 2.671875 0 L 1.375 0 L 1.375 -8.5625 L 2.4375 -8.5625 L 2.640625 -7.390625 L 2.703125 -7.390625 C 2.972656 -7.816406 3.347656 -8.144531 3.828125 -8.375 C 4.304688 -8.601562 4.835938 -8.71875 5.421875 -8.71875 C 6.453125 -8.71875 7.226562 -8.46875 7.75 -7.96875 C 8.269531 -7.476562 8.53125 -6.6875 8.53125 -5.59375 L 8.53125 0 Z M 7.234375 0 "/></g></g></g><g fill="#000000" fill-opacity="1"><g transform="translate(247.097248, 302.19994)"><g><path d="M 4.140625 -0.921875 C 4.367188 -0.921875 4.585938 -0.9375 4.796875 -0.96875 C 5.015625 -1 5.1875 -1.035156 5.3125 -1.078125 L 5.3125 -0.078125 C 5.175781 -0.00390625 4.96875 0.0507812 4.6875 0.09375 C 4.414062 0.132812 4.171875 0.15625 3.953125 0.15625 C 2.296875 0.15625 1.46875 -0.71875 1.46875 -2.46875 L 1.46875 -7.5625 L 0.25 -7.5625 L 0.25 -8.1875 L 1.46875 -8.71875 L 2.015625 -10.546875 L 2.765625 -10.546875 L 2.765625 -8.5625 L 5.25 -8.5625 L 5.25 -7.5625 L 2.765625 -7.5625 L 2.765625 -2.515625 C 2.765625 -2.003906 2.882812 -1.609375 3.125 -1.328125 C 3.375 -1.054688 3.710938 -0.921875 4.140625 -0.921875 Z M 4.140625 -0.921875 "/></g></g></g><g fill="#000000" fill-opacity="1"><g transform="translate(252.744312, 302.19994)"><g><path d="M 5 0.15625 C 3.726562 0.15625 2.726562 -0.226562 2 -1 C 1.269531 -1.769531 0.90625 -2.84375 0.90625 -4.21875 C 0.90625 -5.59375 1.242188 -6.6875 1.921875 -7.5 C 2.597656 -8.3125 3.507812 -8.71875 4.65625 -8.71875 C 5.726562 -8.71875 6.578125 -8.363281 7.203125 -7.65625 C 7.828125 -6.957031 8.140625 -6.03125 8.140625 -4.875 L 8.140625 -4.046875 L 2.25 -4.046875 C 2.269531 -3.046875 2.519531 -2.285156 3 -1.765625 C 3.488281 -1.242188 4.171875 -0.984375 5.046875 -0.984375 C 5.960938 -0.984375 6.875 -1.175781 7.78125 -1.5625 L 7.78125 -0.40625 C 7.320312 -0.207031 6.882812 -0.0664062 6.46875 0.015625 C 6.0625 0.109375 5.570312 0.15625 5 0.15625 Z M 4.640625 -7.640625 C 3.953125 -7.640625 3.40625 -7.414062 3 -6.96875 C 2.59375 -6.519531 2.351562 -5.898438 2.28125 -5.109375 L 6.75 -5.109375 C 6.75 -5.921875 6.566406 -6.546875 6.203125 -6.984375 C 5.835938 -7.421875 5.316406 -7.640625 4.640625 -7.640625 Z M 4.640625 -7.640625 "/></g></g></g><g fill="#000000" fill-opacity="1"><g transform="translate(261.718676, 302.19994)"><g><path d="M 5.28125 -8.71875 C 5.664062 -8.71875 6.007812 -8.6875 6.3125 -8.625 L 6.125 -7.421875 C 5.769531 -7.503906 5.457031 -7.546875 5.1875 -7.546875 C 4.5 -7.546875 3.90625 -7.265625 3.40625 -6.703125 C 2.914062 -6.140625 2.671875 -5.4375 2.671875 -4.59375 L 2.671875 0 L 1.375 0 L 1.375 -8.5625 L 2.453125 -8.5625 L 2.59375 -6.984375 L 2.65625 -6.984375 C 2.976562 -7.535156 3.363281 -7.960938 3.8125 -8.265625 C 4.257812 -8.566406 4.75 -8.71875 5.28125 -8.71875 Z M 5.28125 -8.71875 "/></g></g></g><g fill="#000000" fill-opacity="1"><g transform="translate(268.248331, 302.19994)"><g><path d="M 2.671875 0 L 1.375 0 L 1.375 -12.15625 L 2.671875 -12.15625 Z M 2.671875 0 "/></g></g></g><g fill="#000000" fill-opacity="1"><g transform="translate(272.294207, 302.19994)"><g><path d="M 5 0.15625 C 3.726562 0.15625 2.726562 -0.226562 2 -1 C 1.269531 -1.769531 0.90625 -2.84375 0.90625 -4.21875 C 0.90625 -5.59375 1.242188 -6.6875 1.921875 -7.5 C 2.597656 -8.3125 3.507812 -8.71875 4.65625 -8.71875 C 5.726562 -8.71875 6.578125 -8.363281 7.203125 -7.65625 C 7.828125 -6.957031 8.140625 -6.03125 8.140625 -4.875 L 8.140625 -4.046875 L 2.25 -4.046875 C 2.269531 -3.046875 2.519531 -2.285156 3 -1.765625 C 3.488281 -1.242188 4.171875 -0.984375 5.046875 -0.984375 C 5.960938 -0.984375 6.875 -1.175781 7.78125 -1.5625 L 7.78125 -0.40625 C 7.320312 -0.207031 6.882812 -0.0664062 6.46875 0.015625 C 6.0625 0.109375 5.570312 0.15625 5 0.15625 Z M 4.640625 -7.640625 C 3.953125 -7.640625 3.40625 -7.414062 3 -6.96875 C 2.59375 -6.519531 2.351562 -5.898438 2.28125 -5.109375 L 6.75 -5.109375 C 6.75 -5.921875 6.566406 -6.546875 6.203125 -6.984375 C 5.835938 -7.421875 5.316406 -7.640625 4.640625 -7.640625 Z M 4.640625 -7.640625 "/></g></g></g><g fill="#000000" fill-opacity="1"><g transform="translate(281.268571, 302.19994)"><g><path d="M 4.140625 -0.921875 C 4.367188 -0.921875 4.585938 -0.9375 4.796875 -0.96875 C 5.015625 -1 5.1875 -1.035156 5.3125 -1.078125 L 5.3125 -0.078125 C 5.175781 -0.00390625 4.96875 0.0507812 4.6875 0.09375 C 4.414062 0.132812 4.171875 0.15625 3.953125 0.15625 C 2.296875 0.15625 1.46875 -0.71875 1.46875 -2.46875 L 1.46875 -7.5625 L 0.25 -7.5625 L 0.25 -8.1875 L 1.46875 -8.71875 L 2.015625 -10.546875 L 2.765625 -10.546875 L 2.765625 -8.5625 L 5.25 -8.5625 L 5.25 -7.5625 L 2.765625 -7.5625 L 2.765625 -2.515625 C 2.765625 -2.003906 2.882812 -1.609375 3.125 -1.328125 C 3.375 -1.054688 3.710938 -0.921875 4.140625 -0.921875 Z M 4.140625 -0.921875 "/></g></g></g><g fill="#000000" fill-opacity="1"><g transform="translate(286.915635, 302.19994)"><g><path d="M 5.28125 -8.71875 C 5.664062 -8.71875 6.007812 -8.6875 6.3125 -8.625 L 6.125 -7.421875 C 5.769531 -7.503906 5.457031 -7.546875 5.1875 -7.546875 C 4.5 -7.546875 3.90625 -7.265625 3.40625 -6.703125 C 2.914062 -6.140625 2.671875 -5.4375 2.671875 -4.59375 L 2.671875 0 L 1.375 0 L 1.375 -8.5625 L 2.453125 -8.5625 L 2.59375 -6.984375 L 2.65625 -6.984375 C 2.976562 -7.535156 3.363281 -7.960938 3.8125 -8.265625 C 4.257812 -8.566406 4.75 -8.71875 5.28125 -8.71875 Z M 5.28125 -8.71875 "/></g></g></g><g fill="#000000" fill-opacity="1"><g transform="translate(293.44529, 302.19994)"><g><path d="M 6.640625 0 L 6.390625 -1.21875 L 6.328125 -1.21875 C 5.898438 -0.6875 5.472656 -0.320312 5.046875 -0.125 C 4.617188 0.0625 4.085938 0.15625 3.453125 0.15625 C 2.609375 0.15625 1.941406 -0.0625 1.453125 -0.5 C 0.972656 -0.9375 0.734375 -1.5625 0.734375 -2.375 C 0.734375 -4.101562 2.117188 -5.007812 4.890625 -5.09375 L 6.34375 -5.140625 L 6.34375 -5.671875 C 6.34375 -6.335938 6.195312 -6.832031 5.90625 -7.15625 C 5.613281 -7.476562 5.148438 -7.640625 4.515625 -7.640625 C 3.804688 -7.640625 3 -7.421875 2.09375 -6.984375 L 1.703125 -7.96875 C 2.117188 -8.195312 2.578125 -8.375 3.078125 -8.5 C 3.585938 -8.632812 4.09375 -8.703125 4.59375 -8.703125 C 5.613281 -8.703125 6.367188 -8.472656 6.859375 -8.015625 C 7.359375 -7.566406 7.609375 -6.84375 7.609375 -5.84375 L 7.609375 0 Z M 3.71875 -0.921875 C 4.519531 -0.921875 5.148438 -1.140625 5.609375 -1.578125 C 6.078125 -2.023438 6.3125 -2.644531 6.3125 -3.4375 L 6.3125 -4.21875 L 5.015625 -4.15625 C 3.984375 -4.125 3.238281 -3.960938 2.78125 -3.671875 C 2.320312 -3.390625 2.09375 -2.953125 2.09375 -2.359375 C 2.09375 -1.890625 2.234375 -1.53125 2.515625 -1.28125 C 2.804688 -1.039062 3.207031 -0.921875 3.71875 -0.921875 Z M 3.71875 -0.921875 "/></g></g></g><g fill="#000000" fill-opacity="1"><g transform="translate(302.34156, 302.19994)"><g><path d="M 7.203125 -1.15625 L 7.140625 -1.15625 C 6.535156 -0.28125 5.640625 0.15625 4.453125 0.15625 C 3.328125 0.15625 2.453125 -0.222656 1.828125 -0.984375 C 1.210938 -1.753906 0.90625 -2.847656 0.90625 -4.265625 C 0.90625 -5.671875 1.21875 -6.765625 1.84375 -7.546875 C 2.46875 -8.328125 3.335938 -8.71875 4.453125 -8.71875 C 5.609375 -8.71875 6.5 -8.296875 7.125 -7.453125 L 7.21875 -7.453125 L 7.171875 -8.078125 L 7.140625 -8.671875 L 7.140625 -12.15625 L 8.4375 -12.15625 L 8.4375 0 L 7.375 0 Z M 4.609375 -0.9375 C 5.492188 -0.9375 6.132812 -1.175781 6.53125 -1.65625 C 6.9375 -2.132812 7.140625 -2.910156 7.140625 -3.984375 L 7.140625 -4.265625 C 7.140625 -5.472656 6.9375 -6.335938 6.53125 -6.859375 C 6.125 -7.378906 5.476562 -7.640625 4.59375 -7.640625 C 3.832031 -7.640625 3.25 -7.34375 2.84375 -6.75 C 2.445312 -6.15625 2.25 -5.320312 2.25 -4.25 C 2.25 -3.15625 2.445312 -2.328125 2.84375 -1.765625 C 3.25 -1.210938 3.835938 -0.9375 4.609375 -0.9375 Z M 4.609375 -0.9375 "/></g></g></g><g fill="#000000" fill-opacity="1"><g transform="translate(312.143859, 302.19994)"><g><path d="M 8.765625 -4.296875 C 8.765625 -2.898438 8.410156 -1.804688 7.703125 -1.015625 C 7.003906 -0.234375 6.035156 0.15625 4.796875 0.15625 C 4.035156 0.15625 3.359375 -0.0195312 2.765625 -0.375 C 2.171875 -0.738281 1.710938 -1.253906 1.390625 -1.921875 C 1.066406 -2.597656 0.90625 -3.390625 0.90625 -4.296875 C 0.90625 -5.691406 1.253906 -6.773438 1.953125 -7.546875 C 2.648438 -8.328125 3.617188 -8.71875 4.859375 -8.71875 C 6.054688 -8.71875 7.003906 -8.316406 7.703125 -7.515625 C 8.410156 -6.722656 8.765625 -5.648438 8.765625 -4.296875 Z M 2.25 -4.296875 C 2.25 -3.203125 2.46875 -2.367188 2.90625 -1.796875 C 3.34375 -1.222656 3.984375 -0.9375 4.828125 -0.9375 C 5.679688 -0.9375 6.328125 -1.21875 6.765625 -1.78125 C 7.203125 -2.351562 7.421875 -3.191406 7.421875 -4.296875 C 7.421875 -5.378906 7.203125 -6.203125 6.765625 -6.765625 C 6.328125 -7.335938 5.675781 -7.625 4.8125 -7.625 C 3.96875 -7.625 3.328125 -7.34375 2.890625 -6.78125 C 2.460938 -6.226562 2.25 -5.398438 2.25 -4.296875 Z M 2.25 -4.296875 "/></g></g></g><g fill="#000000" fill-opacity="1"><g transform="translate(171.468743, 323.949939)"><g><path d="M 8.296875 0 L 0.78125 0 L 0.78125 -1.125 L 3.796875 -4.140625 C 4.710938 -5.066406 5.316406 -5.726562 5.609375 -6.125 C 5.898438 -6.519531 6.117188 -6.90625 6.265625 -7.28125 C 6.410156 -7.65625 6.484375 -8.0625 6.484375 -8.5 C 6.484375 -9.101562 6.296875 -9.582031 5.921875 -9.9375 C 5.554688 -10.300781 5.046875 -10.484375 4.390625 -10.484375 C 3.910156 -10.484375 3.457031 -10.40625 3.03125 -10.25 C 2.613281 -10.09375 2.144531 -9.804688 1.625 -9.390625 L 0.9375 -10.28125 C 1.988281 -11.15625 3.132812 -11.59375 4.375 -11.59375 C 5.445312 -11.59375 6.285156 -11.316406 6.890625 -10.765625 C 7.503906 -10.210938 7.8125 -9.472656 7.8125 -8.546875 C 7.8125 -7.828125 7.609375 -7.113281 7.203125 -6.40625 C 6.796875 -5.695312 6.035156 -4.800781 4.921875 -3.71875 L 2.421875 -1.265625 L 2.421875 -1.203125 L 8.296875 -1.203125 Z M 8.296875 0 "/></g></g></g><g fill="#000000" fill-opacity="1"><g transform="translate(180.614952, 323.949939)"><g><path d="M 5.359375 0.15625 C 4.804688 0.15625 4.296875 0.0507812 3.828125 -0.15625 C 3.367188 -0.363281 2.984375 -0.679688 2.671875 -1.109375 L 2.578125 -1.109375 C 2.640625 -0.609375 2.671875 -0.128906 2.671875 0.328125 L 2.671875 3.84375 L 1.375 3.84375 L 1.375 -8.5625 L 2.4375 -8.5625 L 2.609375 -7.390625 L 2.671875 -7.390625 C 3.003906 -7.859375 3.390625 -8.195312 3.828125 -8.40625 C 4.273438 -8.613281 4.785156 -8.71875 5.359375 -8.71875 C 6.492188 -8.71875 7.367188 -8.328125 7.984375 -7.546875 C 8.609375 -6.773438 8.921875 -5.691406 8.921875 -4.296875 C 8.921875 -2.890625 8.601562 -1.796875 7.96875 -1.015625 C 7.34375 -0.234375 6.472656 0.15625 5.359375 0.15625 Z M 5.171875 -7.625 C 4.296875 -7.625 3.660156 -7.378906 3.265625 -6.890625 C 2.878906 -6.410156 2.679688 -5.640625 2.671875 -4.578125 L 2.671875 -4.296875 C 2.671875 -3.085938 2.867188 -2.222656 3.265625 -1.703125 C 3.671875 -1.191406 4.316406 -0.9375 5.203125 -0.9375 C 5.941406 -0.9375 6.519531 -1.234375 6.9375 -1.828125 C 7.363281 -2.429688 7.578125 -3.257812 7.578125 -4.3125 C 7.578125 -5.375 7.363281 -6.191406 6.9375 -6.765625 C 6.519531 -7.335938 5.929688 -7.625 5.171875 -7.625 Z M 5.171875 -7.625 "/></g></g></g><g fill="#000000" fill-opacity="1"><g transform="translate(190.417251, 323.949939)"><g><path d="M 3.4375 -4.390625 L 0.46875 -8.5625 L 1.9375 -8.5625 L 4.203125 -5.28125 L 6.453125 -8.5625 L 7.90625 -8.5625 L 4.9375 -4.390625 L 8.0625 0 L 6.59375 0 L 4.203125 -3.46875 L 1.78125 0 L 0.3125 0 Z M 3.4375 -4.390625 "/></g></g></g><g fill="#000000" fill-opacity="1"><g transform="translate(198.798022, 323.949939)"><g><path d="M 4.09375 -4.390625 C 4.09375 -3.015625 3.890625 -1.734375 3.484375 -0.546875 C 3.085938 0.628906 2.507812 1.65625 1.75 2.53125 L 0.5 2.53125 C 1.21875 1.550781 1.769531 0.460938 2.15625 -0.734375 C 2.539062 -1.929688 2.734375 -3.15625 2.734375 -4.40625 C 2.734375 -5.675781 2.546875 -6.910156 2.171875 -8.109375 C 1.796875 -9.316406 1.234375 -10.421875 0.484375 -11.421875 L 1.75 -11.421875 C 2.507812 -10.515625 3.085938 -9.457031 3.484375 -8.25 C 3.890625 -7.039062 4.09375 -5.753906 4.09375 -4.390625 Z M 4.09375 -4.390625 "/></g></g></g></svg>