<svg xmlns="http://www.w3.org/2000/svg" xmlns:xlink="http://www.w3.org/1999/xlink" width="500" zoomAndPan="magnify" viewBox="0 0 375 374.999991" height="500" preserveAspectRatio="xMidYMid meet" version="1.0"><defs><g/><clipPath id="470ec41d4f"><path d="M 37.503906 276.746094 L 112.503906 276.746094 L 112.503906 337.496094 L 37.503906 337.496094 Z M 37.503906 276.746094 " clip-rule="nonzero"/></clipPath><clipPath id="9e7076f806"><path d="M 37.503906 199.792969 L 112.503906 199.792969 L 112.503906 260.542969 L 37.503906 260.542969 Z M 37.503906 199.792969 " clip-rule="nonzero"/></clipPath><clipPath id="7780b34b90"><path d="M 37.503906 118.417969 L 112.503906 118.417969 L 112.503906 179.167969 L 37.503906 179.167969 Z M 37.503906 118.417969 " clip-rule="nonzero"/></clipPath><clipPath id="7a84aa47a5"><path d="M 37.503906 37.121094 L 112.503906 37.121094 L 112.503906 97.871094 L 37.503906 97.871094 Z M 37.503906 37.121094 " clip-rule="nonzero"/></clipPath><clipPath id="8cdd3e808c"><path d="M 195.753906 276.746094 L 270.753906 276.746094 L 270.753906 337.496094 L 195.753906 337.496094 Z M 195.753906 276.746094 " clip-rule="nonzero"/></clipPath><clipPath id="8efaccf600"><path d="M 195.753906 199.792969 L 270.753906 199.792969 L 270.753906 260.542969 L 195.753906 260.542969 Z M 195.753906 199.792969 " clip-rule="nonzero"/></clipPath><clipPath id="6484acd4fe"><path d="M 195.753906 118.417969 L 270.753906 118.417969 L 270.753906 179.167969 L 195.753906 179.167969 Z M 195.753906 118.417969 " clip-rule="nonzero"/></clipPath><clipPath id="04bf899aa0"><path d="M 195.753906 37.121094 L 270.753906 37.121094 L 270.753906 97.871094 L 195.753906 97.871094 Z M 195.753906 37.121094 " clip-rule="nonzero"/></clipPath></defs><g clip-path="url(#470ec41d4f)"><path fill="#9d5c59" d="M 37.503906 337.496094 L 37.503906 276.746094 L 112.503906 276.746094 L 112.503906 337.496094 Z M 37.503906 337.496094 " fill-opacity="1" fill-rule="nonzero"/></g><g clip-path="url(#9e7076f806)"><path fill="#ffb8cd" d="M 37.503906 260.542969 L 37.503906 199.792969 L 112.503906 199.792969 L 112.503906 260.542969 Z M 37.503906 260.542969 " fill-opacity="1" fill-rule="nonzero"/></g><g clip-path="url(#7780b34b90)"><path fill="#cf1e1c" d="M 37.503906 179.167969 L 37.503906 118.417969 L 112.503906 118.417969 L 112.503906 179.167969 Z M 37.503906 179.167969 " fill-opacity="1" fill-rule="nonzero"/></g><g clip-path="url(#7a84aa47a5)"><path fill="#7f926a" d="M 37.503906 97.871094 L 37.503906 37.121094 L 112.503906 37.121094 L 112.503906 97.871094 Z M 37.503906 97.871094 " fill-opacity="1" fill-rule="nonzero"/></g><g fill="#000000" fill-opacity="1"><g transform="translate(120.52083, 73.312495)"><g><path d="M 7.671875 -7.03125 L 7.15625 -4.375 L 9.359375 -4.375 L 9.359375 -3.359375 L 6.96875 -3.359375 L 6.3125 0 L 5.234375 0 L 5.890625 -3.359375 L 3.53125 -3.359375 L 2.890625 0 L 1.828125 0 L 2.453125 -3.359375 L 0.40625 -3.359375 L 0.40625 -4.375 L 2.640625 -4.375 L 3.171875 -7.03125 L 1.015625 -7.03125 L 1.015625 -8.015625 L 3.34375 -8.015625 L 3.984375 -11.421875 L 5.078125 -11.421875 L 4.4375 -8.015625 L 6.8125 -8.015625 L 7.46875 -11.421875 L 8.515625 -11.421875 L 7.859375 -8.015625 L 9.921875 -8.015625 L 9.921875 -7.03125 Z M 3.71875 -4.375 L 6.078125 -4.375 L 6.59375 -7.03125 L 4.234375 -7.03125 Z M 3.71875 -4.375 "/></g></g></g><g fill="#000000" fill-opacity="1"><g transform="translate(130.854249, 73.312495)"><g><path d="M 2.234375 0 L 6.96875 -10.234375 L 0.734375 -10.234375 L 0.734375 -11.421875 L 8.34375 -11.421875 L 8.34375 -10.390625 L 3.671875 0 Z M 2.234375 0 "/></g></g></g><g fill="#000000" fill-opacity="1"><g transform="translate(140.000458, 73.312495)"><g><path d="M 2.90625 0 L 1.578125 0 L 1.578125 -11.421875 L 7.9375 -11.421875 L 7.9375 -10.25 L 2.90625 -10.25 L 2.90625 -6.0625 L 7.640625 -6.0625 L 7.640625 -4.890625 L 2.90625 -4.890625 Z M 2.90625 0 "/></g></g></g><g fill="#000000" fill-opacity="1"><g transform="translate(148.25626, 73.312495)"><g><path d="M 8.296875 -6.546875 C 8.296875 -2.078125 6.566406 0.15625 3.109375 0.15625 C 2.503906 0.15625 2.023438 0.101562 1.671875 0 L 1.671875 -1.125 C 2.085938 -0.988281 2.5625 -0.921875 3.09375 -0.921875 C 4.34375 -0.921875 5.285156 -1.304688 5.921875 -2.078125 C 6.554688 -2.847656 6.90625 -4.035156 6.96875 -5.640625 L 6.875 -5.640625 C 6.582031 -5.203125 6.195312 -4.867188 5.71875 -4.640625 C 5.25 -4.421875 4.71875 -4.3125 4.125 -4.3125 C 3.113281 -4.3125 2.3125 -4.613281 1.71875 -5.21875 C 1.125 -5.820312 0.828125 -6.664062 0.828125 -7.75 C 0.828125 -8.9375 1.160156 -9.875 1.828125 -10.5625 C 2.492188 -11.25 3.367188 -11.59375 4.453125 -11.59375 C 5.222656 -11.59375 5.898438 -11.390625 6.484375 -10.984375 C 7.066406 -10.585938 7.515625 -10.007812 7.828125 -9.25 C 8.140625 -8.488281 8.296875 -7.585938 8.296875 -6.546875 Z M 4.453125 -10.484375 C 3.703125 -10.484375 3.125 -10.242188 2.71875 -9.765625 C 2.3125 -9.285156 2.109375 -8.617188 2.109375 -7.765625 C 2.109375 -7.015625 2.296875 -6.421875 2.671875 -5.984375 C 3.046875 -5.554688 3.617188 -5.34375 4.390625 -5.34375 C 4.859375 -5.34375 5.289062 -5.4375 5.6875 -5.625 C 6.09375 -5.820312 6.410156 -6.085938 6.640625 -6.421875 C 6.867188 -6.753906 6.984375 -7.101562 6.984375 -7.46875 C 6.984375 -8.019531 6.875 -8.523438 6.65625 -8.984375 C 6.445312 -9.453125 6.148438 -9.816406 5.765625 -10.078125 C 5.378906 -10.347656 4.941406 -10.484375 4.453125 -10.484375 Z M 4.453125 -10.484375 "/></g></g></g><g fill="#000000" fill-opacity="1"><g transform="translate(157.402469, 73.312495)"><g><path d="M 8.296875 0 L 0.78125 0 L 0.78125 -1.125 L 3.796875 -4.140625 C 4.710938 -5.066406 5.316406 -5.726562 5.609375 -6.125 C 5.898438 -6.519531 6.117188 -6.90625 6.265625 -7.28125 C 6.410156 -7.65625 6.484375 -8.0625 6.484375 -8.5 C 6.484375 -9.101562 6.296875 -9.582031 5.921875 -9.9375 C 5.554688 -10.300781 5.046875 -10.484375 4.390625 -10.484375 C 3.910156 -10.484375 3.457031 -10.40625 3.03125 -10.25 C 2.613281 -10.09375 2.144531 -9.804688 1.625 -9.390625 L 0.9375 -10.28125 C 1.988281 -11.15625 3.132812 -11.59375 4.375 -11.59375 C 5.445312 -11.59375 6.285156 -11.316406 6.890625 -10.765625 C 7.503906 -10.210938 7.8125 -9.472656 7.8125 -8.546875 C 7.8125 -7.828125 7.609375 -7.113281 7.203125 -6.40625 C 6.796875 -5.695312 6.035156 -4.800781 4.921875 -3.71875 L 2.421875 -1.265625 L 2.421875 -1.203125 L 8.296875 -1.203125 Z M 8.296875 0 "/></g></g></g><g fill="#000000" fill-opacity="1"><g transform="translate(166.548678, 73.312495)"><g><path d="M 0.921875 -4.890625 C 0.921875 -7.128906 1.351562 -8.804688 2.21875 -9.921875 C 3.09375 -11.035156 4.382812 -11.59375 6.09375 -11.59375 C 6.6875 -11.59375 7.148438 -11.539062 7.484375 -11.4375 L 7.484375 -10.328125 C 7.085938 -10.453125 6.628906 -10.515625 6.109375 -10.515625 C 4.890625 -10.515625 3.957031 -10.132812 3.3125 -9.375 C 2.664062 -8.613281 2.3125 -7.414062 2.25 -5.78125 L 2.34375 -5.78125 C 2.914062 -6.675781 3.820312 -7.125 5.0625 -7.125 C 6.082031 -7.125 6.890625 -6.8125 7.484375 -6.1875 C 8.078125 -5.570312 8.375 -4.734375 8.375 -3.671875 C 8.375 -2.484375 8.046875 -1.546875 7.390625 -0.859375 C 6.742188 -0.179688 5.867188 0.15625 4.765625 0.15625 C 3.585938 0.15625 2.648438 -0.285156 1.953125 -1.171875 C 1.265625 -2.066406 0.921875 -3.304688 0.921875 -4.890625 Z M 4.75 -0.953125 C 5.488281 -0.953125 6.0625 -1.179688 6.46875 -1.640625 C 6.882812 -2.109375 7.09375 -2.785156 7.09375 -3.671875 C 7.09375 -4.421875 6.898438 -5.007812 6.515625 -5.4375 C 6.140625 -5.875 5.570312 -6.09375 4.8125 -6.09375 C 4.34375 -6.09375 3.910156 -5.992188 3.515625 -5.796875 C 3.128906 -5.609375 2.820312 -5.34375 2.59375 -5 C 2.363281 -4.664062 2.25 -4.316406 2.25 -3.953125 C 2.25 -3.421875 2.351562 -2.921875 2.5625 -2.453125 C 2.769531 -1.992188 3.0625 -1.628906 3.4375 -1.359375 C 3.820312 -1.085938 4.257812 -0.953125 4.75 -0.953125 Z M 4.75 -0.953125 "/></g></g></g><g fill="#000000" fill-opacity="1"><g transform="translate(175.694887, 73.312495)"><g><path d="M 8.75 0 L 7.328125 -3.640625 L 2.75 -3.640625 L 1.34375 0 L 0 0 L 4.515625 -11.46875 L 5.640625 -11.46875 L 10.125 0 Z M 6.921875 -4.828125 L 5.59375 -8.375 C 5.414062 -8.820312 5.238281 -9.367188 5.0625 -10.015625 C 4.945312 -9.515625 4.78125 -8.96875 4.5625 -8.375 L 3.21875 -4.828125 Z M 6.921875 -4.828125 "/></g></g></g><g fill="#000000" fill-opacity="1"><g transform="translate(120.187497, 154.607803)"><g><path d="M 7.671875 -7.03125 L 7.15625 -4.375 L 9.359375 -4.375 L 9.359375 -3.359375 L 6.96875 -3.359375 L 6.3125 0 L 5.234375 0 L 5.890625 -3.359375 L 3.53125 -3.359375 L 2.890625 0 L 1.828125 0 L 2.453125 -3.359375 L 0.40625 -3.359375 L 0.40625 -4.375 L 2.640625 -4.375 L 3.171875 -7.03125 L 1.015625 -7.03125 L 1.015625 -8.015625 L 3.34375 -8.015625 L 3.984375 -11.421875 L 5.078125 -11.421875 L 4.4375 -8.015625 L 6.8125 -8.015625 L 7.46875 -11.421875 L 8.515625 -11.421875 L 7.859375 -8.015625 L 9.921875 -8.015625 L 9.921875 -7.03125 Z M 3.71875 -4.375 L 6.078125 -4.375 L 6.59375 -7.03125 L 4.234375 -7.03125 Z M 3.71875 -4.375 "/></g></g></g><g fill="#000000" fill-opacity="1"><g transform="translate(130.520916, 154.607803)"><g><path d="M 6.46875 -10.40625 C 5.207031 -10.40625 4.210938 -9.984375 3.484375 -9.140625 C 2.765625 -8.304688 2.40625 -7.164062 2.40625 -5.71875 C 2.40625 -4.21875 2.753906 -3.0625 3.453125 -2.25 C 4.148438 -1.4375 5.148438 -1.03125 6.453125 -1.03125 C 7.242188 -1.03125 8.148438 -1.171875 9.171875 -1.453125 L 9.171875 -0.296875 C 8.378906 0.00390625 7.40625 0.15625 6.25 0.15625 C 4.5625 0.15625 3.257812 -0.351562 2.34375 -1.375 C 1.4375 -2.394531 0.984375 -3.847656 0.984375 -5.734375 C 0.984375 -6.910156 1.203125 -7.941406 1.640625 -8.828125 C 2.078125 -9.710938 2.710938 -10.394531 3.546875 -10.875 C 4.378906 -11.351562 5.359375 -11.59375 6.484375 -11.59375 C 7.679688 -11.59375 8.726562 -11.375 9.625 -10.9375 L 9.0625 -9.796875 C 8.195312 -10.203125 7.332031 -10.40625 6.46875 -10.40625 Z M 6.46875 -10.40625 "/></g></g></g><g fill="#000000" fill-opacity="1"><g transform="translate(140.612201, 154.607803)"><g><path d="M 2.90625 0 L 1.578125 0 L 1.578125 -11.421875 L 7.9375 -11.421875 L 7.9375 -10.25 L 2.90625 -10.25 L 2.90625 -6.0625 L 7.640625 -6.0625 L 7.640625 -4.890625 L 2.90625 -4.890625 Z M 2.90625 0 "/></g></g></g><g fill="#000000" fill-opacity="1"><g transform="translate(148.868002, 154.607803)"><g><path d="M 5.59375 0 L 4.328125 0 L 4.328125 -8.140625 C 4.328125 -8.816406 4.347656 -9.457031 4.390625 -10.0625 C 4.273438 -9.957031 4.148438 -9.84375 4.015625 -9.71875 C 3.878906 -9.601562 3.257812 -9.097656 2.15625 -8.203125 L 1.46875 -9.09375 L 4.5 -11.421875 L 5.59375 -11.421875 Z M 5.59375 0 "/></g></g></g><g fill="#000000" fill-opacity="1"><g transform="translate(158.014212, 154.607803)"><g><path d="M 7.9375 0 L 1.578125 0 L 1.578125 -11.421875 L 7.9375 -11.421875 L 7.9375 -10.25 L 2.90625 -10.25 L 2.90625 -6.5625 L 7.640625 -6.5625 L 7.640625 -5.390625 L 2.90625 -5.390625 L 2.90625 -1.1875 L 7.9375 -1.1875 Z M 7.9375 0 "/></g></g></g><g fill="#000000" fill-opacity="1"><g transform="translate(166.910482, 154.607803)"><g><path d="M 5.59375 0 L 4.328125 0 L 4.328125 -8.140625 C 4.328125 -8.816406 4.347656 -9.457031 4.390625 -10.0625 C 4.273438 -9.957031 4.148438 -9.84375 4.015625 -9.71875 C 3.878906 -9.601562 3.257812 -9.097656 2.15625 -8.203125 L 1.46875 -9.09375 L 4.5 -11.421875 L 5.59375 -11.421875 Z M 5.59375 0 "/></g></g></g><g fill="#000000" fill-opacity="1"><g transform="translate(176.056691, 154.607803)"><g><path d="M 6.46875 -10.40625 C 5.207031 -10.40625 4.210938 -9.984375 3.484375 -9.140625 C 2.765625 -8.304688 2.40625 -7.164062 2.40625 -5.71875 C 2.40625 -4.21875 2.753906 -3.0625 3.453125 -2.25 C 4.148438 -1.4375 5.148438 -1.03125 6.453125 -1.03125 C 7.242188 -1.03125 8.148438 -1.171875 9.171875 -1.453125 L 9.171875 -0.296875 C 8.378906 0.00390625 7.40625 0.15625 6.25 0.15625 C 4.5625 0.15625 3.257812 -0.351562 2.34375 -1.375 C 1.4375 -2.394531 0.984375 -3.847656 0.984375 -5.734375 C 0.984375 -6.910156 1.203125 -7.941406 1.640625 -8.828125 C 2.078125 -9.710938 2.710938 -10.394531 3.546875 -10.875 C 4.378906 -11.351562 5.359375 -11.59375 6.484375 -11.59375 C 7.679688 -11.59375 8.726562 -11.375 9.625 -10.9375 L 9.0625 -9.796875 C 8.195312 -10.203125 7.332031 -10.40625 6.46875 -10.40625 Z M 6.46875 -10.40625 "/></g></g></g><g fill="#000000" fill-opacity="1"><g transform="translate(119.114579, 235.982737)"><g><path d="M 7.671875 -7.03125 L 7.15625 -4.375 L 9.359375 -4.375 L 9.359375 -3.359375 L 6.96875 -3.359375 L 6.3125 0 L 5.234375 0 L 5.890625 -3.359375 L 3.53125 -3.359375 L 2.890625 0 L 1.828125 0 L 2.453125 -3.359375 L 0.40625 -3.359375 L 0.40625 -4.375 L 2.640625 -4.375 L 3.171875 -7.03125 L 1.015625 -7.03125 L 1.015625 -8.015625 L 3.34375 -8.015625 L 3.984375 -11.421875 L 5.078125 -11.421875 L 4.4375 -8.015625 L 6.8125 -8.015625 L 7.46875 -11.421875 L 8.515625 -11.421875 L 7.859375 -8.015625 L 9.921875 -8.015625 L 9.921875 -7.03125 Z M 3.71875 -4.375 L 6.078125 -4.375 L 6.59375 -7.03125 L 4.234375 -7.03125 Z M 3.71875 -4.375 "/></g></g></g><g fill="#000000" fill-opacity="1"><g transform="translate(129.447998, 235.982737)"><g><path d="M 2.90625 0 L 1.578125 0 L 1.578125 -11.421875 L 7.9375 -11.421875 L 7.9375 -10.25 L 2.90625 -10.25 L 2.90625 -6.0625 L 7.640625 -6.0625 L 7.640625 -4.890625 L 2.90625 -4.890625 Z M 2.90625 0 "/></g></g></g><g fill="#000000" fill-opacity="1"><g transform="translate(137.7038, 235.982737)"><g><path d="M 2.90625 0 L 1.578125 0 L 1.578125 -11.421875 L 7.9375 -11.421875 L 7.9375 -10.25 L 2.90625 -10.25 L 2.90625 -6.0625 L 7.640625 -6.0625 L 7.640625 -4.890625 L 2.90625 -4.890625 Z M 2.90625 0 "/></g></g></g><g fill="#000000" fill-opacity="1"><g transform="translate(145.959601, 235.982737)"><g><path d="M 1.578125 -11.421875 L 4.796875 -11.421875 C 6.316406 -11.421875 7.414062 -11.191406 8.09375 -10.734375 C 8.769531 -10.285156 9.109375 -9.570312 9.109375 -8.59375 C 9.109375 -7.914062 8.914062 -7.359375 8.53125 -6.921875 C 8.15625 -6.484375 7.609375 -6.195312 6.890625 -6.0625 L 6.890625 -5.984375 C 8.617188 -5.691406 9.484375 -4.78125 9.484375 -3.25 C 9.484375 -2.226562 9.140625 -1.429688 8.453125 -0.859375 C 7.765625 -0.285156 6.800781 0 5.5625 0 L 1.578125 0 Z M 2.90625 -6.53125 L 5.09375 -6.53125 C 6.03125 -6.53125 6.703125 -6.675781 7.109375 -6.96875 C 7.523438 -7.269531 7.734375 -7.769531 7.734375 -8.46875 C 7.734375 -9.101562 7.503906 -9.5625 7.046875 -9.84375 C 6.585938 -10.132812 5.859375 -10.28125 4.859375 -10.28125 L 2.90625 -10.28125 Z M 2.90625 -5.40625 L 2.90625 -1.140625 L 5.28125 -1.140625 C 6.207031 -1.140625 6.898438 -1.316406 7.359375 -1.671875 C 7.828125 -2.023438 8.0625 -2.582031 8.0625 -3.34375 C 8.0625 -4.050781 7.820312 -4.570312 7.34375 -4.90625 C 6.875 -5.238281 6.148438 -5.40625 5.171875 -5.40625 Z M 2.90625 -5.40625 "/></g></g></g><g fill="#000000" fill-opacity="1"><g transform="translate(156.324263, 235.982737)"><g><path d="M 4.5625 -11.59375 C 5.601562 -11.59375 6.425781 -11.347656 7.03125 -10.859375 C 7.644531 -10.378906 7.953125 -9.710938 7.953125 -8.859375 C 7.953125 -8.296875 7.773438 -7.78125 7.421875 -7.3125 C 7.078125 -6.851562 6.523438 -6.429688 5.765625 -6.046875 C 6.691406 -5.609375 7.347656 -5.144531 7.734375 -4.65625 C 8.128906 -4.164062 8.328125 -3.601562 8.328125 -2.96875 C 8.328125 -2.019531 7.992188 -1.257812 7.328125 -0.6875 C 6.671875 -0.125 5.765625 0.15625 4.609375 0.15625 C 3.390625 0.15625 2.453125 -0.109375 1.796875 -0.640625 C 1.140625 -1.179688 0.8125 -1.941406 0.8125 -2.921875 C 0.8125 -4.222656 1.609375 -5.238281 3.203125 -5.96875 C 2.484375 -6.375 1.96875 -6.8125 1.65625 -7.28125 C 1.34375 -7.757812 1.1875 -8.289062 1.1875 -8.875 C 1.1875 -9.695312 1.492188 -10.351562 2.109375 -10.84375 C 2.722656 -11.34375 3.539062 -11.59375 4.5625 -11.59375 Z M 2.09375 -2.890625 C 2.09375 -2.265625 2.3125 -1.773438 2.75 -1.421875 C 3.1875 -1.078125 3.796875 -0.90625 4.578125 -0.90625 C 5.359375 -0.90625 5.960938 -1.085938 6.390625 -1.453125 C 6.828125 -1.816406 7.046875 -2.316406 7.046875 -2.953125 C 7.046875 -3.453125 6.84375 -3.898438 6.4375 -4.296875 C 6.03125 -4.691406 5.320312 -5.070312 4.3125 -5.4375 C 3.53125 -5.101562 2.960938 -4.734375 2.609375 -4.328125 C 2.265625 -3.929688 2.09375 -3.453125 2.09375 -2.890625 Z M 4.546875 -10.53125 C 3.898438 -10.53125 3.390625 -10.375 3.015625 -10.0625 C 2.648438 -9.75 2.46875 -9.332031 2.46875 -8.8125 C 2.46875 -8.332031 2.617188 -7.921875 2.921875 -7.578125 C 3.234375 -7.234375 3.800781 -6.890625 4.625 -6.546875 C 5.375 -6.859375 5.898438 -7.191406 6.203125 -7.546875 C 6.515625 -7.910156 6.671875 -8.332031 6.671875 -8.8125 C 6.671875 -9.34375 6.484375 -9.757812 6.109375 -10.0625 C 5.734375 -10.375 5.210938 -10.53125 4.546875 -10.53125 Z M 4.546875 -10.53125 "/></g></g></g><g fill="#000000" fill-opacity="1"><g transform="translate(165.470472, 235.982737)"><g><path d="M 6.46875 -10.40625 C 5.207031 -10.40625 4.210938 -9.984375 3.484375 -9.140625 C 2.765625 -8.304688 2.40625 -7.164062 2.40625 -5.71875 C 2.40625 -4.21875 2.753906 -3.0625 3.453125 -2.25 C 4.148438 -1.4375 5.148438 -1.03125 6.453125 -1.03125 C 7.242188 -1.03125 8.148438 -1.171875 9.171875 -1.453125 L 9.171875 -0.296875 C 8.378906 0.00390625 7.40625 0.15625 6.25 0.15625 C 4.5625 0.15625 3.257812 -0.351562 2.34375 -1.375 C 1.4375 -2.394531 0.984375 -3.847656 0.984375 -5.734375 C 0.984375 -6.910156 1.203125 -7.941406 1.640625 -8.828125 C 2.078125 -9.710938 2.710938 -10.394531 3.546875 -10.875 C 4.378906 -11.351562 5.359375 -11.59375 6.484375 -11.59375 C 7.679688 -11.59375 8.726562 -11.375 9.625 -10.9375 L 9.0625 -9.796875 C 8.195312 -10.203125 7.332031 -10.40625 6.46875 -10.40625 Z M 6.46875 -10.40625 "/></g></g></g><g fill="#000000" fill-opacity="1"><g transform="translate(175.561757, 235.982737)"><g><path d="M 10.6875 -5.828125 C 10.6875 -3.941406 10.175781 -2.5 9.15625 -1.5 C 8.132812 -0.5 6.660156 0 4.734375 0 L 1.578125 0 L 1.578125 -11.421875 L 5.078125 -11.421875 C 6.847656 -11.421875 8.222656 -10.925781 9.203125 -9.9375 C 10.191406 -8.957031 10.6875 -7.585938 10.6875 -5.828125 Z M 9.28125 -5.78125 C 9.28125 -7.269531 8.90625 -8.390625 8.15625 -9.140625 C 7.414062 -9.898438 6.304688 -10.28125 4.828125 -10.28125 L 2.90625 -10.28125 L 2.90625 -1.15625 L 4.515625 -1.15625 C 6.097656 -1.15625 7.285156 -1.539062 8.078125 -2.3125 C 8.878906 -3.09375 9.28125 -4.25 9.28125 -5.78125 Z M 9.28125 -5.78125 "/></g></g></g><g fill="#000000" fill-opacity="1"><g transform="translate(118.83333, 312.937479)"><g><path d="M 7.671875 -7.03125 L 7.15625 -4.375 L 9.359375 -4.375 L 9.359375 -3.359375 L 6.96875 -3.359375 L 6.3125 0 L 5.234375 0 L 5.890625 -3.359375 L 3.53125 -3.359375 L 2.890625 0 L 1.828125 0 L 2.453125 -3.359375 L 0.40625 -3.359375 L 0.40625 -4.375 L 2.640625 -4.375 L 3.171875 -7.03125 L 1.015625 -7.03125 L 1.015625 -8.015625 L 3.34375 -8.015625 L 3.984375 -11.421875 L 5.078125 -11.421875 L 4.4375 -8.015625 L 6.8125 -8.015625 L 7.46875 -11.421875 L 8.515625 -11.421875 L 7.859375 -8.015625 L 9.921875 -8.015625 L 9.921875 -7.03125 Z M 3.71875 -4.375 L 6.078125 -4.375 L 6.59375 -7.03125 L 4.234375 -7.03125 Z M 3.71875 -4.375 "/></g></g></g><g fill="#000000" fill-opacity="1"><g transform="translate(129.166749, 312.937479)"><g><path d="M 8.296875 -6.546875 C 8.296875 -2.078125 6.566406 0.15625 3.109375 0.15625 C 2.503906 0.15625 2.023438 0.101562 1.671875 0 L 1.671875 -1.125 C 2.085938 -0.988281 2.5625 -0.921875 3.09375 -0.921875 C 4.34375 -0.921875 5.285156 -1.304688 5.921875 -2.078125 C 6.554688 -2.847656 6.90625 -4.035156 6.96875 -5.640625 L 6.875 -5.640625 C 6.582031 -5.203125 6.195312 -4.867188 5.71875 -4.640625 C 5.25 -4.421875 4.71875 -4.3125 4.125 -4.3125 C 3.113281 -4.3125 2.3125 -4.613281 1.71875 -5.21875 C 1.125 -5.820312 0.828125 -6.664062 0.828125 -7.75 C 0.828125 -8.9375 1.160156 -9.875 1.828125 -10.5625 C 2.492188 -11.25 3.367188 -11.59375 4.453125 -11.59375 C 5.222656 -11.59375 5.898438 -11.390625 6.484375 -10.984375 C 7.066406 -10.585938 7.515625 -10.007812 7.828125 -9.25 C 8.140625 -8.488281 8.296875 -7.585938 8.296875 -6.546875 Z M 4.453125 -10.484375 C 3.703125 -10.484375 3.125 -10.242188 2.71875 -9.765625 C 2.3125 -9.285156 2.109375 -8.617188 2.109375 -7.765625 C 2.109375 -7.015625 2.296875 -6.421875 2.671875 -5.984375 C 3.046875 -5.554688 3.617188 -5.34375 4.390625 -5.34375 C 4.859375 -5.34375 5.289062 -5.4375 5.6875 -5.625 C 6.09375 -5.820312 6.410156 -6.085938 6.640625 -6.421875 C 6.867188 -6.753906 6.984375 -7.101562 6.984375 -7.46875 C 6.984375 -8.019531 6.875 -8.523438 6.65625 -8.984375 C 6.445312 -9.453125 6.148438 -9.816406 5.765625 -10.078125 C 5.378906 -10.347656 4.941406 -10.484375 4.453125 -10.484375 Z M 4.453125 -10.484375 "/></g></g></g><g fill="#000000" fill-opacity="1"><g transform="translate(138.312959, 312.937479)"><g><path d="M 10.6875 -5.828125 C 10.6875 -3.941406 10.175781 -2.5 9.15625 -1.5 C 8.132812 -0.5 6.660156 0 4.734375 0 L 1.578125 0 L 1.578125 -11.421875 L 5.078125 -11.421875 C 6.847656 -11.421875 8.222656 -10.925781 9.203125 -9.9375 C 10.191406 -8.957031 10.6875 -7.585938 10.6875 -5.828125 Z M 9.28125 -5.78125 C 9.28125 -7.269531 8.90625 -8.390625 8.15625 -9.140625 C 7.414062 -9.898438 6.304688 -10.28125 4.828125 -10.28125 L 2.90625 -10.28125 L 2.90625 -1.15625 L 4.515625 -1.15625 C 6.097656 -1.15625 7.285156 -1.539062 8.078125 -2.3125 C 8.878906 -3.09375 9.28125 -4.25 9.28125 -5.78125 Z M 9.28125 -5.78125 "/></g></g></g><g fill="#000000" fill-opacity="1"><g transform="translate(149.974178, 312.937479)"><g><path d="M 4.359375 -6.984375 C 5.554688 -6.984375 6.5 -6.679688 7.1875 -6.078125 C 7.882812 -5.484375 8.234375 -4.671875 8.234375 -3.640625 C 8.234375 -2.453125 7.851562 -1.519531 7.09375 -0.84375 C 6.34375 -0.175781 5.304688 0.15625 3.984375 0.15625 C 2.703125 0.15625 1.722656 -0.0507812 1.046875 -0.46875 L 1.046875 -1.71875 C 1.410156 -1.476562 1.863281 -1.289062 2.40625 -1.15625 C 2.945312 -1.03125 3.476562 -0.96875 4 -0.96875 C 4.914062 -0.96875 5.628906 -1.179688 6.140625 -1.609375 C 6.648438 -2.046875 6.90625 -2.671875 6.90625 -3.484375 C 6.90625 -5.078125 5.925781 -5.875 3.96875 -5.875 C 3.476562 -5.875 2.816406 -5.800781 1.984375 -5.65625 L 1.3125 -6.078125 L 1.75 -11.421875 L 7.421875 -11.421875 L 7.421875 -10.234375 L 2.859375 -10.234375 L 2.5625 -6.796875 C 3.164062 -6.921875 3.765625 -6.984375 4.359375 -6.984375 Z M 4.359375 -6.984375 "/></g></g></g><g fill="#000000" fill-opacity="1"><g transform="translate(159.120388, 312.937479)"><g><path d="M 6.46875 -10.40625 C 5.207031 -10.40625 4.210938 -9.984375 3.484375 -9.140625 C 2.765625 -8.304688 2.40625 -7.164062 2.40625 -5.71875 C 2.40625 -4.21875 2.753906 -3.0625 3.453125 -2.25 C 4.148438 -1.4375 5.148438 -1.03125 6.453125 -1.03125 C 7.242188 -1.03125 8.148438 -1.171875 9.171875 -1.453125 L 9.171875 -0.296875 C 8.378906 0.00390625 7.40625 0.15625 6.25 0.15625 C 4.5625 0.15625 3.257812 -0.351562 2.34375 -1.375 C 1.4375 -2.394531 0.984375 -3.847656 0.984375 -5.734375 C 0.984375 -6.910156 1.203125 -7.941406 1.640625 -8.828125 C 2.078125 -9.710938 2.710938 -10.394531 3.546875 -10.875 C 4.378906 -11.351562 5.359375 -11.59375 6.484375 -11.59375 C 7.679688 -11.59375 8.726562 -11.375 9.625 -10.9375 L 9.0625 -9.796875 C 8.195312 -10.203125 7.332031 -10.40625 6.46875 -10.40625 Z M 6.46875 -10.40625 "/></g></g></g><g fill="#000000" fill-opacity="1"><g transform="translate(169.211673, 312.937479)"><g><path d="M 4.359375 -6.984375 C 5.554688 -6.984375 6.5 -6.679688 7.1875 -6.078125 C 7.882812 -5.484375 8.234375 -4.671875 8.234375 -3.640625 C 8.234375 -2.453125 7.851562 -1.519531 7.09375 -0.84375 C 6.34375 -0.175781 5.304688 0.15625 3.984375 0.15625 C 2.703125 0.15625 1.722656 -0.0507812 1.046875 -0.46875 L 1.046875 -1.71875 C 1.410156 -1.476562 1.863281 -1.289062 2.40625 -1.15625 C 2.945312 -1.03125 3.476562 -0.96875 4 -0.96875 C 4.914062 -0.96875 5.628906 -1.179688 6.140625 -1.609375 C 6.648438 -2.046875 6.90625 -2.671875 6.90625 -3.484375 C 6.90625 -5.078125 5.925781 -5.875 3.96875 -5.875 C 3.476562 -5.875 2.816406 -5.800781 1.984375 -5.65625 L 1.3125 -6.078125 L 1.75 -11.421875 L 7.421875 -11.421875 L 7.421875 -10.234375 L 2.859375 -10.234375 L 2.5625 -6.796875 C 3.164062 -6.921875 3.765625 -6.984375 4.359375 -6.984375 Z M 4.359375 -6.984375 "/></g></g></g><g fill="#000000" fill-opacity="1"><g transform="translate(178.357882, 312.937479)"><g><path d="M 8.296875 -6.546875 C 8.296875 -2.078125 6.566406 0.15625 3.109375 0.15625 C 2.503906 0.15625 2.023438 0.101562 1.671875 0 L 1.671875 -1.125 C 2.085938 -0.988281 2.5625 -0.921875 3.09375 -0.921875 C 4.34375 -0.921875 5.285156 -1.304688 5.921875 -2.078125 C 6.554688 -2.847656 6.90625 -4.035156 6.96875 -5.640625 L 6.875 -5.640625 C 6.582031 -5.203125 6.195312 -4.867188 5.71875 -4.640625 C 5.25 -4.421875 4.71875 -4.3125 4.125 -4.3125 C 3.113281 -4.3125 2.3125 -4.613281 1.71875 -5.21875 C 1.125 -5.820312 0.828125 -6.664062 0.828125 -7.75 C 0.828125 -8.9375 1.160156 -9.875 1.828125 -10.5625 C 2.492188 -11.25 3.367188 -11.59375 4.453125 -11.59375 C 5.222656 -11.59375 5.898438 -11.390625 6.484375 -10.984375 C 7.066406 -10.585938 7.515625 -10.007812 7.828125 -9.25 C 8.140625 -8.488281 8.296875 -7.585938 8.296875 -6.546875 Z M 4.453125 -10.484375 C 3.703125 -10.484375 3.125 -10.242188 2.71875 -9.765625 C 2.3125 -9.285156 2.109375 -8.617188 2.109375 -7.765625 C 2.109375 -7.015625 2.296875 -6.421875 2.671875 -5.984375 C 3.046875 -5.554688 3.617188 -5.34375 4.390625 -5.34375 C 4.859375 -5.34375 5.289062 -5.4375 5.6875 -5.625 C 6.09375 -5.820312 6.410156 -6.085938 6.640625 -6.421875 C 6.867188 -6.753906 6.984375 -7.101562 6.984375 -7.46875 C 6.984375 -8.019531 6.875 -8.523438 6.65625 -8.984375 C 6.445312 -9.453125 6.148438 -9.816406 5.765625 -10.078125 C 5.378906 -10.347656 4.941406 -10.484375 4.453125 -10.484375 Z M 4.453125 -10.484375 "/></g></g></g><g clip-path="url(#8cdd3e808c)"><path fill="#5c341f" d="M 195.753906 337.496094 L 195.753906 276.746094 L 270.753906 276.746094 L 270.753906 337.496094 Z M 195.753906 337.496094 " fill-opacity="1" fill-rule="nonzero"/></g><g clip-path="url(#8efaccf600)"><path fill="#fcd6cd" d="M 195.753906 260.542969 L 195.753906 199.792969 L 270.753906 199.792969 L 270.753906 260.542969 Z M 195.753906 260.542969 " fill-opacity="1" fill-rule="nonzero"/></g><g clip-path="url(#6484acd4fe)"><path fill="#ed5584" d="M 195.753906 179.167969 L 195.753906 118.417969 L 270.753906 118.417969 L 270.753906 179.167969 Z M 195.753906 179.167969 " fill-opacity="1" fill-rule="nonzero"/></g><g clip-path="url(#04bf899aa0)"><path fill="#f993af" d="M 195.753906 97.871094 L 195.753906 37.121094 L 270.753906 37.121094 L 270.753906 97.871094 Z M 195.753906 97.871094 " fill-opacity="1" fill-rule="nonzero"/></g><g fill="#000000" fill-opacity="1"><g transform="translate(279.218717, 73.312495)"><g><path d="M 7.671875 -7.03125 L 7.15625 -4.375 L 9.359375 -4.375 L 9.359375 -3.359375 L 6.96875 -3.359375 L 6.3125 0 L 5.234375 0 L 5.890625 -3.359375 L 3.53125 -3.359375 L 2.890625 0 L 1.828125 0 L 2.453125 -3.359375 L 0.40625 -3.359375 L 0.40625 -4.375 L 2.640625 -4.375 L 3.171875 -7.03125 L 1.015625 -7.03125 L 1.015625 -8.015625 L 3.34375 -8.015625 L 3.984375 -11.421875 L 5.078125 -11.421875 L 4.4375 -8.015625 L 6.8125 -8.015625 L 7.46875 -11.421875 L 8.515625 -11.421875 L 7.859375 -8.015625 L 9.921875 -8.015625 L 9.921875 -7.03125 Z M 3.71875 -4.375 L 6.078125 -4.375 L 6.59375 -7.03125 L 4.234375 -7.03125 Z M 3.71875 -4.375 "/></g></g></g><g fill="#000000" fill-opacity="1"><g transform="translate(289.552137, 73.312495)"><g><path d="M 2.90625 0 L 1.578125 0 L 1.578125 -11.421875 L 7.9375 -11.421875 L 7.9375 -10.25 L 2.90625 -10.25 L 2.90625 -6.0625 L 7.640625 -6.0625 L 7.640625 -4.890625 L 2.90625 -4.890625 Z M 2.90625 0 "/></g></g></g><g fill="#000000" fill-opacity="1"><g transform="translate(297.807938, 73.312495)"><g><path d="M 8.296875 -6.546875 C 8.296875 -2.078125 6.566406 0.15625 3.109375 0.15625 C 2.503906 0.15625 2.023438 0.101562 1.671875 0 L 1.671875 -1.125 C 2.085938 -0.988281 2.5625 -0.921875 3.09375 -0.921875 C 4.34375 -0.921875 5.285156 -1.304688 5.921875 -2.078125 C 6.554688 -2.847656 6.90625 -4.035156 6.96875 -5.640625 L 6.875 -5.640625 C 6.582031 -5.203125 6.195312 -4.867188 5.71875 -4.640625 C 5.25 -4.421875 4.71875 -4.3125 4.125 -4.3125 C 3.113281 -4.3125 2.3125 -4.613281 1.71875 -5.21875 C 1.125 -5.820312 0.828125 -6.664062 0.828125 -7.75 C 0.828125 -8.9375 1.160156 -9.875 1.828125 -10.5625 C 2.492188 -11.25 3.367188 -11.59375 4.453125 -11.59375 C 5.222656 -11.59375 5.898438 -11.390625 6.484375 -10.984375 C 7.066406 -10.585938 7.515625 -10.007812 7.828125 -9.25 C 8.140625 -8.488281 8.296875 -7.585938 8.296875 -6.546875 Z M 4.453125 -10.484375 C 3.703125 -10.484375 3.125 -10.242188 2.71875 -9.765625 C 2.3125 -9.285156 2.109375 -8.617188 2.109375 -7.765625 C 2.109375 -7.015625 2.296875 -6.421875 2.671875 -5.984375 C 3.046875 -5.554688 3.617188 -5.34375 4.390625 -5.34375 C 4.859375 -5.34375 5.289062 -5.4375 5.6875 -5.625 C 6.09375 -5.820312 6.410156 -6.085938 6.640625 -6.421875 C 6.867188 -6.753906 6.984375 -7.101562 6.984375 -7.46875 C 6.984375 -8.019531 6.875 -8.523438 6.65625 -8.984375 C 6.445312 -9.453125 6.148438 -9.816406 5.765625 -10.078125 C 5.378906 -10.347656 4.941406 -10.484375 4.453125 -10.484375 Z M 4.453125 -10.484375 "/></g></g></g><g fill="#000000" fill-opacity="1"><g transform="translate(306.954147, 73.312495)"><g><path d="M 8.296875 -6.546875 C 8.296875 -2.078125 6.566406 0.15625 3.109375 0.15625 C 2.503906 0.15625 2.023438 0.101562 1.671875 0 L 1.671875 -1.125 C 2.085938 -0.988281 2.5625 -0.921875 3.09375 -0.921875 C 4.34375 -0.921875 5.285156 -1.304688 5.921875 -2.078125 C 6.554688 -2.847656 6.90625 -4.035156 6.96875 -5.640625 L 6.875 -5.640625 C 6.582031 -5.203125 6.195312 -4.867188 5.71875 -4.640625 C 5.25 -4.421875 4.71875 -4.3125 4.125 -4.3125 C 3.113281 -4.3125 2.3125 -4.613281 1.71875 -5.21875 C 1.125 -5.820312 0.828125 -6.664062 0.828125 -7.75 C 0.828125 -8.9375 1.160156 -9.875 1.828125 -10.5625 C 2.492188 -11.25 3.367188 -11.59375 4.453125 -11.59375 C 5.222656 -11.59375 5.898438 -11.390625 6.484375 -10.984375 C 7.066406 -10.585938 7.515625 -10.007812 7.828125 -9.25 C 8.140625 -8.488281 8.296875 -7.585938 8.296875 -6.546875 Z M 4.453125 -10.484375 C 3.703125 -10.484375 3.125 -10.242188 2.71875 -9.765625 C 2.3125 -9.285156 2.109375 -8.617188 2.109375 -7.765625 C 2.109375 -7.015625 2.296875 -6.421875 2.671875 -5.984375 C 3.046875 -5.554688 3.617188 -5.34375 4.390625 -5.34375 C 4.859375 -5.34375 5.289062 -5.4375 5.6875 -5.625 C 6.09375 -5.820312 6.410156 -6.085938 6.640625 -6.421875 C 6.867188 -6.753906 6.984375 -7.101562 6.984375 -7.46875 C 6.984375 -8.019531 6.875 -8.523438 6.65625 -8.984375 C 6.445312 -9.453125 6.148438 -9.816406 5.765625 -10.078125 C 5.378906 -10.347656 4.941406 -10.484375 4.453125 -10.484375 Z M 4.453125 -10.484375 "/></g></g></g><g fill="#000000" fill-opacity="1"><g transform="translate(316.100356, 73.312495)"><g><path d="M 7.859375 -8.734375 C 7.859375 -8.003906 7.65625 -7.40625 7.25 -6.9375 C 6.84375 -6.476562 6.265625 -6.171875 5.515625 -6.015625 L 5.515625 -5.953125 C 6.429688 -5.835938 7.109375 -5.546875 7.546875 -5.078125 C 7.992188 -4.609375 8.21875 -3.992188 8.21875 -3.234375 C 8.21875 -2.148438 7.835938 -1.3125 7.078125 -0.71875 C 6.328125 -0.132812 5.253906 0.15625 3.859375 0.15625 C 3.253906 0.15625 2.703125 0.109375 2.203125 0.015625 C 1.703125 -0.078125 1.210938 -0.238281 0.734375 -0.46875 L 0.734375 -1.703125 C 1.234375 -1.453125 1.757812 -1.265625 2.3125 -1.140625 C 2.875 -1.015625 3.40625 -0.953125 3.90625 -0.953125 C 5.882812 -0.953125 6.875 -1.722656 6.875 -3.265625 C 6.875 -4.648438 5.785156 -5.34375 3.609375 -5.34375 L 2.484375 -5.34375 L 2.484375 -6.46875 L 3.625 -6.46875 C 4.507812 -6.46875 5.210938 -6.660156 5.734375 -7.046875 C 6.253906 -7.441406 6.515625 -7.988281 6.515625 -8.6875 C 6.515625 -9.25 6.320312 -9.6875 5.9375 -10 C 5.5625 -10.320312 5.046875 -10.484375 4.390625 -10.484375 C 3.890625 -10.484375 3.414062 -10.414062 2.96875 -10.28125 C 2.53125 -10.144531 2.023438 -9.894531 1.453125 -9.53125 L 0.796875 -10.40625 C 1.265625 -10.769531 1.804688 -11.054688 2.421875 -11.265625 C 3.035156 -11.484375 3.679688 -11.59375 4.359375 -11.59375 C 5.460938 -11.59375 6.320312 -11.335938 6.9375 -10.828125 C 7.550781 -10.316406 7.859375 -9.617188 7.859375 -8.734375 Z M 7.859375 -8.734375 "/></g></g></g><g fill="#000000" fill-opacity="1"><g transform="translate(325.246565, 73.312495)"><g><path d="M 8.75 0 L 7.328125 -3.640625 L 2.75 -3.640625 L 1.34375 0 L 0 0 L 4.515625 -11.46875 L 5.640625 -11.46875 L 10.125 0 Z M 6.921875 -4.828125 L 5.59375 -8.375 C 5.414062 -8.820312 5.238281 -9.367188 5.0625 -10.015625 C 4.945312 -9.515625 4.78125 -8.96875 4.5625 -8.375 L 3.21875 -4.828125 Z M 6.921875 -4.828125 "/></g></g></g><g fill="#000000" fill-opacity="1"><g transform="translate(335.369093, 73.312495)"><g><path d="M 2.90625 0 L 1.578125 0 L 1.578125 -11.421875 L 7.9375 -11.421875 L 7.9375 -10.25 L 2.90625 -10.25 L 2.90625 -6.0625 L 7.640625 -6.0625 L 7.640625 -4.890625 L 2.90625 -4.890625 Z M 2.90625 0 "/></g></g></g><g fill="#000000" fill-opacity="1"><g transform="translate(277.682271, 154.607803)"><g><path d="M 7.671875 -7.03125 L 7.15625 -4.375 L 9.359375 -4.375 L 9.359375 -3.359375 L 6.96875 -3.359375 L 6.3125 0 L 5.234375 0 L 5.890625 -3.359375 L 3.53125 -3.359375 L 2.890625 0 L 1.828125 0 L 2.453125 -3.359375 L 0.40625 -3.359375 L 0.40625 -4.375 L 2.640625 -4.375 L 3.171875 -7.03125 L 1.015625 -7.03125 L 1.015625 -8.015625 L 3.34375 -8.015625 L 3.984375 -11.421875 L 5.078125 -11.421875 L 4.4375 -8.015625 L 6.8125 -8.015625 L 7.46875 -11.421875 L 8.515625 -11.421875 L 7.859375 -8.015625 L 9.921875 -8.015625 L 9.921875 -7.03125 Z M 3.71875 -4.375 L 6.078125 -4.375 L 6.59375 -7.03125 L 4.234375 -7.03125 Z M 3.71875 -4.375 "/></g></g></g><g fill="#000000" fill-opacity="1"><g transform="translate(288.01569, 154.607803)"><g><path d="M 7.9375 0 L 1.578125 0 L 1.578125 -11.421875 L 7.9375 -11.421875 L 7.9375 -10.25 L 2.90625 -10.25 L 2.90625 -6.5625 L 7.640625 -6.5625 L 7.640625 -5.390625 L 2.90625 -5.390625 L 2.90625 -1.1875 L 7.9375 -1.1875 Z M 7.9375 0 "/></g></g></g><g fill="#000000" fill-opacity="1"><g transform="translate(296.91196, 154.607803)"><g><path d="M 10.6875 -5.828125 C 10.6875 -3.941406 10.175781 -2.5 9.15625 -1.5 C 8.132812 -0.5 6.660156 0 4.734375 0 L 1.578125 0 L 1.578125 -11.421875 L 5.078125 -11.421875 C 6.847656 -11.421875 8.222656 -10.925781 9.203125 -9.9375 C 10.191406 -8.957031 10.6875 -7.585938 10.6875 -5.828125 Z M 9.28125 -5.78125 C 9.28125 -7.269531 8.90625 -8.390625 8.15625 -9.140625 C 7.414062 -9.898438 6.304688 -10.28125 4.828125 -10.28125 L 2.90625 -10.28125 L 2.90625 -1.15625 L 4.515625 -1.15625 C 6.097656 -1.15625 7.285156 -1.539062 8.078125 -2.3125 C 8.878906 -3.09375 9.28125 -4.25 9.28125 -5.78125 Z M 9.28125 -5.78125 "/></g></g></g><g fill="#000000" fill-opacity="1"><g transform="translate(308.57318, 154.607803)"><g><path d="M 4.359375 -6.984375 C 5.554688 -6.984375 6.5 -6.679688 7.1875 -6.078125 C 7.882812 -5.484375 8.234375 -4.671875 8.234375 -3.640625 C 8.234375 -2.453125 7.851562 -1.519531 7.09375 -0.84375 C 6.34375 -0.175781 5.304688 0.15625 3.984375 0.15625 C 2.703125 0.15625 1.722656 -0.0507812 1.046875 -0.46875 L 1.046875 -1.71875 C 1.410156 -1.476562 1.863281 -1.289062 2.40625 -1.15625 C 2.945312 -1.03125 3.476562 -0.96875 4 -0.96875 C 4.914062 -0.96875 5.628906 -1.179688 6.140625 -1.609375 C 6.648438 -2.046875 6.90625 -2.671875 6.90625 -3.484375 C 6.90625 -5.078125 5.925781 -5.875 3.96875 -5.875 C 3.476562 -5.875 2.816406 -5.800781 1.984375 -5.65625 L 1.3125 -6.078125 L 1.75 -11.421875 L 7.421875 -11.421875 L 7.421875 -10.234375 L 2.859375 -10.234375 L 2.5625 -6.796875 C 3.164062 -6.921875 3.765625 -6.984375 4.359375 -6.984375 Z M 4.359375 -6.984375 "/></g></g></g><g fill="#000000" fill-opacity="1"><g transform="translate(317.719389, 154.607803)"><g><path d="M 4.359375 -6.984375 C 5.554688 -6.984375 6.5 -6.679688 7.1875 -6.078125 C 7.882812 -5.484375 8.234375 -4.671875 8.234375 -3.640625 C 8.234375 -2.453125 7.851562 -1.519531 7.09375 -0.84375 C 6.34375 -0.175781 5.304688 0.15625 3.984375 0.15625 C 2.703125 0.15625 1.722656 -0.0507812 1.046875 -0.46875 L 1.046875 -1.71875 C 1.410156 -1.476562 1.863281 -1.289062 2.40625 -1.15625 C 2.945312 -1.03125 3.476562 -0.96875 4 -0.96875 C 4.914062 -0.96875 5.628906 -1.179688 6.140625 -1.609375 C 6.648438 -2.046875 6.90625 -2.671875 6.90625 -3.484375 C 6.90625 -5.078125 5.925781 -5.875 3.96875 -5.875 C 3.476562 -5.875 2.816406 -5.800781 1.984375 -5.65625 L 1.3125 -6.078125 L 1.75 -11.421875 L 7.421875 -11.421875 L 7.421875 -10.234375 L 2.859375 -10.234375 L 2.5625 -6.796875 C 3.164062 -6.921875 3.765625 -6.984375 4.359375 -6.984375 Z M 4.359375 -6.984375 "/></g></g></g><g fill="#000000" fill-opacity="1"><g transform="translate(326.865598, 154.607803)"><g><path d="M 4.5625 -11.59375 C 5.601562 -11.59375 6.425781 -11.347656 7.03125 -10.859375 C 7.644531 -10.378906 7.953125 -9.710938 7.953125 -8.859375 C 7.953125 -8.296875 7.773438 -7.78125 7.421875 -7.3125 C 7.078125 -6.851562 6.523438 -6.429688 5.765625 -6.046875 C 6.691406 -5.609375 7.347656 -5.144531 7.734375 -4.65625 C 8.128906 -4.164062 8.328125 -3.601562 8.328125 -2.96875 C 8.328125 -2.019531 7.992188 -1.257812 7.328125 -0.6875 C 6.671875 -0.125 5.765625 0.15625 4.609375 0.15625 C 3.390625 0.15625 2.453125 -0.109375 1.796875 -0.640625 C 1.140625 -1.179688 0.8125 -1.941406 0.8125 -2.921875 C 0.8125 -4.222656 1.609375 -5.238281 3.203125 -5.96875 C 2.484375 -6.375 1.96875 -6.8125 1.65625 -7.28125 C 1.34375 -7.757812 1.1875 -8.289062 1.1875 -8.875 C 1.1875 -9.695312 1.492188 -10.351562 2.109375 -10.84375 C 2.722656 -11.34375 3.539062 -11.59375 4.5625 -11.59375 Z M 2.09375 -2.890625 C 2.09375 -2.265625 2.3125 -1.773438 2.75 -1.421875 C 3.1875 -1.078125 3.796875 -0.90625 4.578125 -0.90625 C 5.359375 -0.90625 5.960938 -1.085938 6.390625 -1.453125 C 6.828125 -1.816406 7.046875 -2.316406 7.046875 -2.953125 C 7.046875 -3.453125 6.84375 -3.898438 6.4375 -4.296875 C 6.03125 -4.691406 5.320312 -5.070312 4.3125 -5.4375 C 3.53125 -5.101562 2.960938 -4.734375 2.609375 -4.328125 C 2.265625 -3.929688 2.09375 -3.453125 2.09375 -2.890625 Z M 4.546875 -10.53125 C 3.898438 -10.53125 3.390625 -10.375 3.015625 -10.0625 C 2.648438 -9.75 2.46875 -9.332031 2.46875 -8.8125 C 2.46875 -8.332031 2.617188 -7.921875 2.921875 -7.578125 C 3.234375 -7.234375 3.800781 -6.890625 4.625 -6.546875 C 5.375 -6.859375 5.898438 -7.191406 6.203125 -7.546875 C 6.515625 -7.910156 6.671875 -8.332031 6.671875 -8.8125 C 6.671875 -9.34375 6.484375 -9.757812 6.109375 -10.0625 C 5.734375 -10.375 5.210938 -10.53125 4.546875 -10.53125 Z M 4.546875 -10.53125 "/></g></g></g><g fill="#000000" fill-opacity="1"><g transform="translate(336.011808, 154.607803)"><g><path d="M 8.828125 -2.625 L 7.140625 -2.625 L 7.140625 0 L 5.890625 0 L 5.890625 -2.625 L 0.34375 -2.625 L 0.34375 -3.765625 L 5.765625 -11.484375 L 7.140625 -11.484375 L 7.140625 -3.8125 L 8.828125 -3.8125 Z M 5.890625 -3.8125 L 5.890625 -7.609375 C 5.890625 -8.347656 5.914062 -9.1875 5.96875 -10.125 L 5.90625 -10.125 C 5.65625 -9.625 5.421875 -9.210938 5.203125 -8.890625 L 1.640625 -3.8125 Z M 5.890625 -3.8125 "/></g></g></g><g fill="#000000" fill-opacity="1"><g transform="translate(275.802087, 235.982737)"><g><path d="M 7.671875 -7.03125 L 7.15625 -4.375 L 9.359375 -4.375 L 9.359375 -3.359375 L 6.96875 -3.359375 L 6.3125 0 L 5.234375 0 L 5.890625 -3.359375 L 3.53125 -3.359375 L 2.890625 0 L 1.828125 0 L 2.453125 -3.359375 L 0.40625 -3.359375 L 0.40625 -4.375 L 2.640625 -4.375 L 3.171875 -7.03125 L 1.015625 -7.03125 L 1.015625 -8.015625 L 3.34375 -8.015625 L 3.984375 -11.421875 L 5.078125 -11.421875 L 4.4375 -8.015625 L 6.8125 -8.015625 L 7.46875 -11.421875 L 8.515625 -11.421875 L 7.859375 -8.015625 L 9.921875 -8.015625 L 9.921875 -7.03125 Z M 3.71875 -4.375 L 6.078125 -4.375 L 6.59375 -7.03125 L 4.234375 -7.03125 Z M 3.71875 -4.375 "/></g></g></g><g fill="#000000" fill-opacity="1"><g transform="translate(286.135506, 235.982737)"><g><path d="M 2.90625 0 L 1.578125 0 L 1.578125 -11.421875 L 7.9375 -11.421875 L 7.9375 -10.25 L 2.90625 -10.25 L 2.90625 -6.0625 L 7.640625 -6.0625 L 7.640625 -4.890625 L 2.90625 -4.890625 Z M 2.90625 0 "/></g></g></g><g fill="#000000" fill-opacity="1"><g transform="translate(294.391308, 235.982737)"><g><path d="M 6.46875 -10.40625 C 5.207031 -10.40625 4.210938 -9.984375 3.484375 -9.140625 C 2.765625 -8.304688 2.40625 -7.164062 2.40625 -5.71875 C 2.40625 -4.21875 2.753906 -3.0625 3.453125 -2.25 C 4.148438 -1.4375 5.148438 -1.03125 6.453125 -1.03125 C 7.242188 -1.03125 8.148438 -1.171875 9.171875 -1.453125 L 9.171875 -0.296875 C 8.378906 0.00390625 7.40625 0.15625 6.25 0.15625 C 4.5625 0.15625 3.257812 -0.351562 2.34375 -1.375 C 1.4375 -2.394531 0.984375 -3.847656 0.984375 -5.734375 C 0.984375 -6.910156 1.203125 -7.941406 1.640625 -8.828125 C 2.078125 -9.710938 2.710938 -10.394531 3.546875 -10.875 C 4.378906 -11.351562 5.359375 -11.59375 6.484375 -11.59375 C 7.679688 -11.59375 8.726562 -11.375 9.625 -10.9375 L 9.0625 -9.796875 C 8.195312 -10.203125 7.332031 -10.40625 6.46875 -10.40625 Z M 6.46875 -10.40625 "/></g></g></g><g fill="#000000" fill-opacity="1"><g transform="translate(304.482593, 235.982737)"><g><path d="M 10.6875 -5.828125 C 10.6875 -3.941406 10.175781 -2.5 9.15625 -1.5 C 8.132812 -0.5 6.660156 0 4.734375 0 L 1.578125 0 L 1.578125 -11.421875 L 5.078125 -11.421875 C 6.847656 -11.421875 8.222656 -10.925781 9.203125 -9.9375 C 10.191406 -8.957031 10.6875 -7.585938 10.6875 -5.828125 Z M 9.28125 -5.78125 C 9.28125 -7.269531 8.90625 -8.390625 8.15625 -9.140625 C 7.414062 -9.898438 6.304688 -10.28125 4.828125 -10.28125 L 2.90625 -10.28125 L 2.90625 -1.15625 L 4.515625 -1.15625 C 6.097656 -1.15625 7.285156 -1.539062 8.078125 -2.3125 C 8.878906 -3.09375 9.28125 -4.25 9.28125 -5.78125 Z M 9.28125 -5.78125 "/></g></g></g><g fill="#000000" fill-opacity="1"><g transform="translate(316.143813, 235.982737)"><g><path d="M 0.921875 -4.890625 C 0.921875 -7.128906 1.351562 -8.804688 2.21875 -9.921875 C 3.09375 -11.035156 4.382812 -11.59375 6.09375 -11.59375 C 6.6875 -11.59375 7.148438 -11.539062 7.484375 -11.4375 L 7.484375 -10.328125 C 7.085938 -10.453125 6.628906 -10.515625 6.109375 -10.515625 C 4.890625 -10.515625 3.957031 -10.132812 3.3125 -9.375 C 2.664062 -8.613281 2.3125 -7.414062 2.25 -5.78125 L 2.34375 -5.78125 C 2.914062 -6.675781 3.820312 -7.125 5.0625 -7.125 C 6.082031 -7.125 6.890625 -6.8125 7.484375 -6.1875 C 8.078125 -5.570312 8.375 -4.734375 8.375 -3.671875 C 8.375 -2.484375 8.046875 -1.546875 7.390625 -0.859375 C 6.742188 -0.179688 5.867188 0.15625 4.765625 0.15625 C 3.585938 0.15625 2.648438 -0.285156 1.953125 -1.171875 C 1.265625 -2.066406 0.921875 -3.304688 0.921875 -4.890625 Z M 4.75 -0.953125 C 5.488281 -0.953125 6.0625 -1.179688 6.46875 -1.640625 C 6.882812 -2.109375 7.09375 -2.785156 7.09375 -3.671875 C 7.09375 -4.421875 6.898438 -5.007812 6.515625 -5.4375 C 6.140625 -5.875 5.570312 -6.09375 4.8125 -6.09375 C 4.34375 -6.09375 3.910156 -5.992188 3.515625 -5.796875 C 3.128906 -5.609375 2.820312 -5.34375 2.59375 -5 C 2.363281 -4.664062 2.25 -4.316406 2.25 -3.953125 C 2.25 -3.421875 2.351562 -2.921875 2.5625 -2.453125 C 2.769531 -1.992188 3.0625 -1.628906 3.4375 -1.359375 C 3.820312 -1.085938 4.257812 -0.953125 4.75 -0.953125 Z M 4.75 -0.953125 "/></g></g></g><g fill="#000000" fill-opacity="1"><g transform="translate(325.290022, 235.982737)"><g><path d="M 6.46875 -10.40625 C 5.207031 -10.40625 4.210938 -9.984375 3.484375 -9.140625 C 2.765625 -8.304688 2.40625 -7.164062 2.40625 -5.71875 C 2.40625 -4.21875 2.753906 -3.0625 3.453125 -2.25 C 4.148438 -1.4375 5.148438 -1.03125 6.453125 -1.03125 C 7.242188 -1.03125 8.148438 -1.171875 9.171875 -1.453125 L 9.171875 -0.296875 C 8.378906 0.00390625 7.40625 0.15625 6.25 0.15625 C 4.5625 0.15625 3.257812 -0.351562 2.34375 -1.375 C 1.4375 -2.394531 0.984375 -3.847656 0.984375 -5.734375 C 0.984375 -6.910156 1.203125 -7.941406 1.640625 -8.828125 C 2.078125 -9.710938 2.710938 -10.394531 3.546875 -10.875 C 4.378906 -11.351562 5.359375 -11.59375 6.484375 -11.59375 C 7.679688 -11.59375 8.726562 -11.375 9.625 -10.9375 L 9.0625 -9.796875 C 8.195312 -10.203125 7.332031 -10.40625 6.46875 -10.40625 Z M 6.46875 -10.40625 "/></g></g></g><g fill="#000000" fill-opacity="1"><g transform="translate(335.381307, 235.982737)"><g><path d="M 10.6875 -5.828125 C 10.6875 -3.941406 10.175781 -2.5 9.15625 -1.5 C 8.132812 -0.5 6.660156 0 4.734375 0 L 1.578125 0 L 1.578125 -11.421875 L 5.078125 -11.421875 C 6.847656 -11.421875 8.222656 -10.925781 9.203125 -9.9375 C 10.191406 -8.957031 10.6875 -7.585938 10.6875 -5.828125 Z M 9.28125 -5.78125 C 9.28125 -7.269531 8.90625 -8.390625 8.15625 -9.140625 C 7.414062 -9.898438 6.304688 -10.28125 4.828125 -10.28125 L 2.90625 -10.28125 L 2.90625 -1.15625 L 4.515625 -1.15625 C 6.097656 -1.15625 7.285156 -1.539062 8.078125 -2.3125 C 8.878906 -3.09375 9.28125 -4.25 9.28125 -5.78125 Z M 9.28125 -5.78125 "/></g></g></g><g fill="#000000" fill-opacity="1"><g transform="translate(278.786441, 312.937479)"><g><path d="M 7.671875 -7.03125 L 7.15625 -4.375 L 9.359375 -4.375 L 9.359375 -3.359375 L 6.96875 -3.359375 L 6.3125 0 L 5.234375 0 L 5.890625 -3.359375 L 3.53125 -3.359375 L 2.890625 0 L 1.828125 0 L 2.453125 -3.359375 L 0.40625 -3.359375 L 0.40625 -4.375 L 2.640625 -4.375 L 3.171875 -7.03125 L 1.015625 -7.03125 L 1.015625 -8.015625 L 3.34375 -8.015625 L 3.984375 -11.421875 L 5.078125 -11.421875 L 4.4375 -8.015625 L 6.8125 -8.015625 L 7.46875 -11.421875 L 8.515625 -11.421875 L 7.859375 -8.015625 L 9.921875 -8.015625 L 9.921875 -7.03125 Z M 3.71875 -4.375 L 6.078125 -4.375 L 6.59375 -7.03125 L 4.234375 -7.03125 Z M 3.71875 -4.375 "/></g></g></g><g fill="#000000" fill-opacity="1"><g transform="translate(289.119861, 312.937479)"><g><path d="M 4.359375 -6.984375 C 5.554688 -6.984375 6.5 -6.679688 7.1875 -6.078125 C 7.882812 -5.484375 8.234375 -4.671875 8.234375 -3.640625 C 8.234375 -2.453125 7.851562 -1.519531 7.09375 -0.84375 C 6.34375 -0.175781 5.304688 0.15625 3.984375 0.15625 C 2.703125 0.15625 1.722656 -0.0507812 1.046875 -0.46875 L 1.046875 -1.71875 C 1.410156 -1.476562 1.863281 -1.289062 2.40625 -1.15625 C 2.945312 -1.03125 3.476562 -0.96875 4 -0.96875 C 4.914062 -0.96875 5.628906 -1.179688 6.140625 -1.609375 C 6.648438 -2.046875 6.90625 -2.671875 6.90625 -3.484375 C 6.90625 -5.078125 5.925781 -5.875 3.96875 -5.875 C 3.476562 -5.875 2.816406 -5.800781 1.984375 -5.65625 L 1.3125 -6.078125 L 1.75 -11.421875 L 7.421875 -11.421875 L 7.421875 -10.234375 L 2.859375 -10.234375 L 2.5625 -6.796875 C 3.164062 -6.921875 3.765625 -6.984375 4.359375 -6.984375 Z M 4.359375 -6.984375 "/></g></g></g><g fill="#000000" fill-opacity="1"><g transform="translate(298.26607, 312.937479)"><g><path d="M 6.46875 -10.40625 C 5.207031 -10.40625 4.210938 -9.984375 3.484375 -9.140625 C 2.765625 -8.304688 2.40625 -7.164062 2.40625 -5.71875 C 2.40625 -4.21875 2.753906 -3.0625 3.453125 -2.25 C 4.148438 -1.4375 5.148438 -1.03125 6.453125 -1.03125 C 7.242188 -1.03125 8.148438 -1.171875 9.171875 -1.453125 L 9.171875 -0.296875 C 8.378906 0.00390625 7.40625 0.15625 6.25 0.15625 C 4.5625 0.15625 3.257812 -0.351562 2.34375 -1.375 C 1.4375 -2.394531 0.984375 -3.847656 0.984375 -5.734375 C 0.984375 -6.910156 1.203125 -7.941406 1.640625 -8.828125 C 2.078125 -9.710938 2.710938 -10.394531 3.546875 -10.875 C 4.378906 -11.351562 5.359375 -11.59375 6.484375 -11.59375 C 7.679688 -11.59375 8.726562 -11.375 9.625 -10.9375 L 9.0625 -9.796875 C 8.195312 -10.203125 7.332031 -10.40625 6.46875 -10.40625 Z M 6.46875 -10.40625 "/></g></g></g><g fill="#000000" fill-opacity="1"><g transform="translate(308.357355, 312.937479)"><g><path d="M 7.859375 -8.734375 C 7.859375 -8.003906 7.65625 -7.40625 7.25 -6.9375 C 6.84375 -6.476562 6.265625 -6.171875 5.515625 -6.015625 L 5.515625 -5.953125 C 6.429688 -5.835938 7.109375 -5.546875 7.546875 -5.078125 C 7.992188 -4.609375 8.21875 -3.992188 8.21875 -3.234375 C 8.21875 -2.148438 7.835938 -1.3125 7.078125 -0.71875 C 6.328125 -0.132812 5.253906 0.15625 3.859375 0.15625 C 3.253906 0.15625 2.703125 0.109375 2.203125 0.015625 C 1.703125 -0.078125 1.210938 -0.238281 0.734375 -0.46875 L 0.734375 -1.703125 C 1.234375 -1.453125 1.757812 -1.265625 2.3125 -1.140625 C 2.875 -1.015625 3.40625 -0.953125 3.90625 -0.953125 C 5.882812 -0.953125 6.875 -1.722656 6.875 -3.265625 C 6.875 -4.648438 5.785156 -5.34375 3.609375 -5.34375 L 2.484375 -5.34375 L 2.484375 -6.46875 L 3.625 -6.46875 C 4.507812 -6.46875 5.210938 -6.660156 5.734375 -7.046875 C 6.253906 -7.441406 6.515625 -7.988281 6.515625 -8.6875 C 6.515625 -9.25 6.320312 -9.6875 5.9375 -10 C 5.5625 -10.320312 5.046875 -10.484375 4.390625 -10.484375 C 3.890625 -10.484375 3.414062 -10.414062 2.96875 -10.28125 C 2.53125 -10.144531 2.023438 -9.894531 1.453125 -9.53125 L 0.796875 -10.40625 C 1.265625 -10.769531 1.804688 -11.054688 2.421875 -11.265625 C 3.035156 -11.484375 3.679688 -11.59375 4.359375 -11.59375 C 5.460938 -11.59375 6.320312 -11.335938 6.9375 -10.828125 C 7.550781 -10.316406 7.859375 -9.617188 7.859375 -8.734375 Z M 7.859375 -8.734375 "/></g></g></g><g fill="#000000" fill-opacity="1"><g transform="translate(317.503564, 312.937479)"><g><path d="M 8.828125 -2.625 L 7.140625 -2.625 L 7.140625 0 L 5.890625 0 L 5.890625 -2.625 L 0.34375 -2.625 L 0.34375 -3.765625 L 5.765625 -11.484375 L 7.140625 -11.484375 L 7.140625 -3.8125 L 8.828125 -3.8125 Z M 5.890625 -3.8125 L 5.890625 -7.609375 C 5.890625 -8.347656 5.914062 -9.1875 5.96875 -10.125 L 5.90625 -10.125 C 5.65625 -9.625 5.421875 -9.210938 5.203125 -8.890625 L 1.640625 -3.8125 Z M 5.890625 -3.8125 "/></g></g></g><g fill="#000000" fill-opacity="1"><g transform="translate(326.649773, 312.937479)"><g><path d="M 5.59375 0 L 4.328125 0 L 4.328125 -8.140625 C 4.328125 -8.816406 4.347656 -9.457031 4.390625 -10.0625 C 4.273438 -9.957031 4.148438 -9.84375 4.015625 -9.71875 C 3.878906 -9.601562 3.257812 -9.097656 2.15625 -8.203125 L 1.46875 -9.09375 L 4.5 -11.421875 L 5.59375 -11.421875 Z M 5.59375 0 "/></g></g></g><g fill="#000000" fill-opacity="1"><g transform="translate(335.795982, 312.937479)"><g><path d="M 2.90625 0 L 1.578125 0 L 1.578125 -11.421875 L 7.9375 -11.421875 L 7.9375 -10.25 L 2.90625 -10.25 L 2.90625 -6.0625 L 7.640625 -6.0625 L 7.640625 -4.890625 L 2.90625 -4.890625 Z M 2.90625 0 "/></g></g></g></svg>